<?xml version="1.0" standalone="no"?>
<!DOCTYPE svg PUBLIC "-//W3C//DTD SVG 20010904//EN"
 "http://www.w3.org/TR/2001/REC-SVG-20010904/DTD/svg10.dtd">
<svg version="1.0" xmlns="http://www.w3.org/2000/svg"
 width="1320.000000pt" height="760.000000pt" viewBox="0 0 1320.000000 760.000000"
 preserveAspectRatio="xMidYMid meet">

<g transform="translate(0.000000,760.000000) scale(0.100000,-0.100000)"
fill="#000000" stroke="none">
<path d="M0 3800 l0 -3800 6599 0 6600 0 0 3800 0 3800 -6600 0 -6599 0 0
-3800z m7411 3729 c68 -5 246 -15 394 -23 740 -43 1493 -131 2110 -247 635
-120 1095 -240 1580 -411 273 -97 493 -191 705 -301 399 -207 633 -392 823
-649 54 -73 116 -219 132 -308 19 -105 19 -140 1 -260 -13 -82 -13 -103 0
-155 18 -78 18 -178 -1 -269 -14 -66 -14 -81 0 -137 19 -81 19 -186 0 -266
-13 -56 -13 -71 0 -134 19 -89 19 -176 0 -275 -13 -70 -13 -86 0 -134 19 -71
19 -167 0 -268 -14 -71 -14 -87 0 -143 19 -82 19 -179 0 -268 -13 -63 -13 -79
0 -142 19 -89 19 -167 0 -265 -13 -68 -13 -85 0 -141 19 -81 19 -144 0 -258
-13 -79 -13 -97 0 -145 19 -71 19 -161 0 -278 -27 -163 -147 -365 -312 -523
-406 -390 -1226 -758 -2213 -995 -80 -19 -163 -39 -185 -44 -213 -53 -811
-166 -975 -185 -30 -3 -77 -10 -105 -15 -81 -16 -411 -58 -536 -70 -64 -5
-138 -14 -165 -19 -27 -5 -98 -12 -159 -16 -60 -4 -164 -13 -230 -20 -66 -8
-178 -17 -250 -20 -71 -3 -227 -13 -345 -23 -314 -24 -1828 -24 -2165 0 -126
9 -284 20 -350 23 -66 3 -181 12 -255 20 -74 8 -182 17 -240 20 -58 4 -123 11
-145 15 -22 5 -116 16 -210 25 -93 9 -172 18 -175 20 -3 2 -53 8 -110 15 -58
6 -139 17 -180 25 -41 8 -100 17 -130 20 -30 3 -91 13 -135 21 -44 7 -118 20
-165 28 -89 16 -226 42 -395 76 -187 37 -230 47 -265 57 -19 6 -91 23 -160 39
-142 31 -599 159 -735 205 -432 148 -756 288 -1035 447 -77 44 -304 200 -361
248 -177 150 -296 295 -369 449 -69 145 -84 210 -78 342 3 63 12 122 20 142
14 30 14 37 0 64 -24 48 -29 239 -8 311 16 53 16 64 2 126 -22 94 -20 214 3
288 18 59 18 62 0 114 -25 72 -25 233 -1 302 17 47 17 52 -1 105 -25 74 -21
268 7 319 11 22 14 38 8 45 -34 43 -43 273 -13 346 16 40 16 48 3 85 -24 68
-28 233 -7 301 16 50 17 63 6 99 -23 70 -25 239 -6 315 16 61 16 70 1 120 -22
74 -21 216 3 311 39 161 163 354 322 506 311 296 785 546 1469 777 247 83 393
125 665 193 319 79 378 93 485 113 58 12 139 28 180 36 155 32 280 54 445 80
94 14 211 32 260 40 50 8 167 23 260 35 94 11 229 27 300 36 72 8 177 20 235
25 351 31 445 39 535 44 55 3 215 12 355 20 140 9 305 17 365 18 227 7 1378 3
1496 -4z"/>
<path d="M5795 7464 c-184 -7 -845 -51 -965 -64 -47 -5 -125 -12 -175 -15 -49
-4 -130 -12 -180 -20 -49 -7 -126 -16 -170 -20 -44 -3 -120 -12 -170 -20 -49
-8 -117 -17 -150 -20 -33 -3 -98 -12 -145 -20 -47 -8 -146 -23 -220 -35 -321
-50 -629 -111 -960 -190 -1164 -278 -1987 -664 -2363 -1106 -72 -85 -165 -248
-188 -328 -17 -60 -27 -186 -19 -236 l7 -45 12 31 c24 62 58 114 136 209 419
507 1445 950 2845 1229 275 54 381 74 435 81 28 4 84 13 125 20 41 8 100 17
130 20 30 3 93 13 140 20 151 25 632 80 880 100 96 8 220 19 275 24 55 6 161
12 235 16 74 3 255 13 401 21 215 13 414 15 1015 11 412 -2 765 -7 784 -10 19
-3 103 -8 185 -12 141 -6 364 -21 675 -45 74 -6 272 -27 440 -46 265 -30 405
-48 640 -84 30 -5 89 -13 130 -19 389 -57 969 -184 1415 -311 1098 -313 1840
-740 2079 -1195 l31 -60 3 76 c9 227 -131 488 -371 697 -251 217 -575 401
-1042 589 -133 54 -507 179 -669 224 -61 17 -122 34 -136 39 -30 11 -335 87
-394 99 -22 5 -99 22 -171 39 -71 16 -193 41 -270 56 -77 14 -174 33 -215 41
-113 23 -242 44 -368 60 -63 8 -130 19 -150 24 -21 6 -71 13 -112 16 -41 4
-109 13 -150 20 -41 7 -115 16 -165 20 -49 4 -128 13 -175 20 -47 8 -128 16
-180 20 -52 3 -158 13 -235 20 -77 8 -223 19 -325 25 -102 7 -241 16 -310 21
-118 10 -1681 20 -1875 13z"/>
<path d="M5955 7060 c-159 -4 -346 -13 -415 -18 -69 -6 -192 -14 -275 -17 -82
-4 -206 -13 -275 -20 -69 -8 -179 -17 -245 -20 -66 -4 -145 -11 -175 -16 -30
-5 -120 -16 -200 -24 -474 -49 -1089 -150 -1555 -256 -323 -74 -739 -185 -895
-239 -30 -10 -102 -35 -160 -55 -325 -113 -649 -256 -890 -393 -97 -55 -289
-188 -370 -256 -105 -88 -165 -149 -240 -246 -54 -71 -140 -225 -140 -251 0
-7 14 -43 31 -80 l32 -68 50 62 c214 261 578 505 1062 712 189 81 201 86 410
160 316 112 644 208 960 280 66 15 134 31 150 36 31 9 396 81 595 117 356 66
1064 157 1410 182 74 6 185 15 245 20 109 10 455 28 965 51 292 13 1075 7
1400 -10 107 -6 292 -15 410 -21 118 -6 226 -12 240 -14 14 -3 93 -10 175 -16
238 -17 559 -51 905 -94 51 -6 495 -74 560 -85 123 -22 441 -83 530 -103 52
-11 111 -24 130 -28 486 -103 1038 -273 1460 -450 374 -157 703 -345 904 -520
128 -110 172 -155 230 -233 16 -21 32 -35 36 -30 22 24 60 107 60 131 -1 39
-85 189 -160 284 -179 225 -558 485 -965 661 -494 214 -954 359 -1575 497 -52
12 -113 26 -135 32 -22 6 -74 16 -115 23 -110 18 -247 45 -315 60 -33 8 -98
19 -145 24 -47 6 -116 18 -155 26 -38 8 -83 15 -100 15 -16 0 -66 7 -110 15
-92 17 -281 41 -470 60 -71 7 -161 18 -200 24 -38 5 -117 13 -175 16 -58 3
-168 12 -245 20 -77 8 -241 19 -365 25 -124 6 -286 15 -360 20 -190 14 -1178
20 -1525 10z"/>
<path d="M5855 6650 c-55 -5 -219 -13 -365 -19 -146 -6 -328 -18 -405 -26 -77
-8 -192 -17 -255 -20 -63 -4 -158 -13 -210 -20 -52 -7 -138 -16 -190 -20 -52
-4 -116 -11 -142 -16 -25 -4 -95 -13 -155 -19 -59 -6 -130 -15 -158 -20 -27
-6 -86 -14 -130 -20 -44 -5 -120 -16 -170 -25 -243 -40 -396 -67 -460 -80 -38
-8 -117 -24 -175 -35 -592 -116 -1244 -309 -1705 -506 -269 -114 -579 -285
-740 -408 -188 -143 -384 -351 -364 -388 17 -32 110 -138 120 -138 6 0 46 32
88 71 167 157 520 364 892 522 206 88 225 96 514 192 314 105 546 169 935 259
204 47 667 137 830 161 52 8 145 21 205 30 61 8 151 22 200 30 50 8 142 19
205 25 63 6 122 13 130 15 24 7 512 53 680 65 85 6 165 13 177 15 21 5 483 26
933 42 754 28 1904 -25 2760 -127 91 -11 183 -22 205 -24 22 -3 117 -16 210
-30 1048 -156 1848 -359 2525 -643 380 -159 723 -357 916 -529 46 -41 87 -74
91 -74 8 1 115 131 121 148 1 5 -24 42 -57 83 -198 249 -551 486 -1031 694
-450 195 -1120 395 -1725 514 -60 12 -132 27 -160 32 -60 13 -166 31 -300 53
-55 9 -134 23 -175 31 -41 8 -104 17 -140 20 -36 4 -94 13 -130 20 -36 8 -119
18 -184 25 -65 6 -122 12 -125 14 -4 3 -63 9 -131 16 -69 6 -172 17 -230 25
-58 8 -154 17 -215 20 -60 3 -171 12 -245 20 -74 8 -214 17 -310 20 -96 3
-281 13 -410 21 -251 15 -1354 18 -1545 4z"/>
<path d="M6320 6258 c-3 -3 -97 -8 -210 -12 -413 -13 -907 -36 -985 -45 -44
-5 -134 -12 -200 -16 -66 -3 -176 -12 -245 -20 -229 -27 -404 -47 -495 -55
-86 -9 -173 -21 -390 -56 -55 -8 -146 -22 -201 -29 -56 -8 -122 -19 -145 -24
-24 -5 -93 -19 -154 -30 -373 -70 -477 -92 -720 -152 -818 -204 -1428 -444
-1871 -736 -119 -78 -299 -226 -299 -245 0 -7 40 -47 89 -89 l90 -77 70 47
c645 434 1740 783 3106 991 259 39 406 59 525 70 66 6 127 13 135 15 24 7 417
44 635 60 376 28 500 35 835 45 184 5 418 13 520 16 175 6 681 -5 1185 -27
444 -19 1139 -79 1505 -130 782 -109 1328 -218 1905 -383 224 -63 573 -182
740 -251 50 -21 113 -46 140 -57 155 -61 456 -218 618 -324 54 -35 103 -64
108 -64 12 0 48 28 132 106 l57 53 -87 77 c-191 167 -567 383 -928 533 -157
65 -504 185 -710 246 -298 87 -857 221 -1060 254 -56 9 -100 18 -295 56 -71
14 -172 29 -395 60 -55 8 -120 18 -145 23 -25 6 -85 13 -135 17 -49 3 -133 12
-185 20 -52 8 -129 16 -170 20 -41 3 -124 12 -185 20 -60 7 -162 16 -225 20
-63 3 -182 12 -265 20 -82 7 -289 19 -460 25 -170 7 -332 14 -360 15 -97 7
-870 18 -875 13z"/>
<path d="M6330 5847 c-3 -3 -117 -8 -255 -11 -435 -10 -595 -16 -795 -31 -336
-26 -559 -45 -745 -65 -99 -11 -245 -27 -325 -35 -80 -9 -152 -18 -160 -20 -8
-3 -64 -11 -125 -19 -287 -39 -603 -92 -890 -151 -624 -126 -1202 -297 -1677
-496 -181 -76 -446 -211 -585 -298 -67 -42 -122 -79 -123 -83 0 -9 238 -168
252 -168 4 0 63 27 129 61 134 67 366 171 444 200 28 10 88 32 135 49 130 48
394 135 500 165 52 15 122 36 155 46 161 48 581 147 845 198 496 95 827 147
1195 186 72 8 162 19 200 24 39 5 140 15 225 21 85 6 162 13 171 16 8 2 188
16 400 30 339 23 470 27 1109 31 643 5 1097 -3 1360 -22 30 -3 129 -9 220 -15
204 -13 674 -55 835 -75 66 -8 179 -22 250 -30 683 -83 1496 -252 2097 -436
352 -108 770 -272 997 -392 102 -54 116 -58 140 -48 46 21 231 146 230 156 0
25 -344 224 -545 314 -296 133 -657 267 -909 336 -55 15 -120 33 -145 41 -69
21 -184 51 -305 79 -60 14 -132 32 -160 39 -79 22 -394 87 -605 126 -63 11
-137 25 -165 30 -62 12 -294 47 -440 66 -60 7 -116 16 -124 19 -7 3 -86 12
-174 21 -88 8 -164 17 -167 19 -11 7 -400 44 -630 60 -107 8 -244 19 -305 24
-60 5 -222 13 -360 17 -137 4 -277 8 -310 9 -280 8 -861 17 -865 12z"/>
<path d="M5978 5429 c-197 -4 -447 -15 -555 -23 -109 -8 -243 -18 -298 -21
-160 -9 -550 -44 -675 -60 -63 -9 -164 -20 -224 -26 -60 -5 -112 -12 -115 -14
-3 -1 -49 -8 -101 -14 -87 -10 -145 -19 -445 -67 -935 -148 -1838 -406 -2438
-696 l-147 -72 27 -18 c23 -15 148 -78 298 -149 16 -8 40 -2 102 25 75 32 312
118 493 179 380 129 1182 319 1632 386 35 6 140 22 233 36 221 34 425 61 605
80 80 9 172 20 205 25 33 5 103 11 155 15 52 3 167 12 255 21 526 48 1416 72
2105 55 267 -6 550 -16 630 -21 80 -5 218 -15 307 -20 89 -6 179 -13 200 -15
21 -2 101 -9 178 -15 77 -6 235 -23 350 -36 116 -13 233 -27 260 -30 78 -9
456 -63 595 -85 272 -43 629 -116 1005 -204 338 -79 925 -265 1157 -365 l98
-42 165 81 c91 44 165 85 165 90 0 13 -188 107 -355 179 -358 152 -817 299
-1275 407 -378 89 -811 174 -1070 210 -58 8 -181 26 -275 40 -93 14 -233 32
-310 40 -77 7 -169 18 -205 24 -36 5 -103 12 -150 16 -47 3 -148 12 -225 20
-77 8 -194 17 -260 20 -66 3 -201 13 -300 20 -191 16 -971 36 -1265 33 -96 -1
-336 -5 -532 -9z"/>
<path d="M87 5082 c-3 -31 -3 -75 2 -97 l7 -40 23 43 c21 42 22 45 6 93 -9 27
-20 51 -24 54 -5 2 -11 -21 -14 -53z"/>
<path d="M13072 5091 l-21 -51 23 -52 23 -51 6 33 c10 45 8 142 -2 158 -5 9
-14 -3 -29 -37z"/>
<path d="M5835 5020 c-121 -4 -283 -13 -360 -19 -77 -5 -196 -13 -265 -16 -69
-4 -186 -12 -260 -20 -74 -8 -180 -17 -235 -20 -55 -3 -147 -12 -205 -20 -58
-8 -134 -17 -170 -20 -126 -12 -620 -81 -820 -114 -524 -88 -1085 -218 -1503
-347 -86 -27 -473 -162 -551 -192 l-50 -20 31 -15 c43 -23 158 -67 301 -117
l123 -43 72 22 c440 135 871 242 1272 316 77 14 160 30 185 35 25 6 106 19
180 30 74 12 194 30 265 41 149 23 384 52 595 74 80 9 156 18 170 20 72 14
678 57 1090 77 287 14 1487 18 1700 6 69 -4 220 -12 335 -18 116 -6 287 -17
380 -25 94 -8 213 -17 265 -20 162 -11 785 -84 985 -116 348 -55 379 -60 465
-76 250 -46 510 -100 715 -149 222 -53 646 -169 732 -201 41 -15 46 -15 125
11 126 42 352 127 362 137 6 5 -13 19 -46 33 -100 44 -482 174 -668 227 -58
16 -134 38 -170 49 -115 33 -495 124 -675 160 -60 12 -137 28 -170 35 -33 7
-82 16 -110 20 -27 4 -66 11 -86 16 -41 10 -246 43 -399 64 -58 8 -116 17
-130 21 -36 8 -301 42 -467 59 -78 8 -171 19 -205 24 -35 6 -133 15 -218 21
-85 6 -189 15 -230 20 -41 5 -136 12 -210 15 -74 4 -223 13 -330 21 -228 18
-1459 27 -1815 14z"/>
<path d="M153 4915 c-18 -35 -33 -72 -33 -82 0 -10 15 -44 33 -76 l33 -58 50
58 c28 32 54 64 58 70 4 8 -9 32 -33 60 -22 27 -48 58 -58 70 l-18 23 -32 -65z"/>
<path d="M12952 4908 c-32 -41 -50 -73 -46 -81 6 -10 61 -80 95 -120 3 -5 21
20 39 54 36 70 36 88 -7 165 l-28 51 -53 -69z"/>
<path d="M295 4728 c-84 -104 -80 -94 -49 -131 14 -17 44 -51 66 -75 l39 -43
32 27 c18 15 57 49 87 77 l54 50 -84 78 c-47 43 -87 78 -90 79 -3 0 -27 -28
-55 -62z"/>
<path d="M12758 4717 c-47 -40 -87 -75 -87 -78 -1 -3 38 -41 85 -84 l87 -79
63 69 c35 39 64 75 64 81 0 12 -111 163 -120 163 -3 0 -44 -32 -92 -72z"/>
<path d="M87 4668 c-4 -35 -3 -79 1 -98 l8 -34 22 48 c24 51 22 79 -11 126
-13 19 -15 15 -20 -42z"/>
<path d="M13071 4683 l-23 -47 23 -48 c12 -26 26 -45 31 -42 10 7 11 171 0
178 -5 3 -19 -16 -31 -41z"/>
<path d="M6055 4620 c-165 -4 -361 -12 -435 -18 -74 -6 -209 -14 -300 -17 -91
-4 -205 -11 -255 -16 -49 -6 -169 -16 -265 -24 -198 -15 -418 -39 -565 -60
-55 -7 -131 -17 -170 -20 -38 -3 -106 -12 -150 -20 -44 -7 -145 -23 -225 -35
-161 -23 -365 -60 -700 -126 -148 -29 -527 -122 -810 -199 -211 -57 -204 -55
-199 -59 8 -8 335 -105 470 -139 l137 -35 128 29 c191 44 346 77 464 100 258
48 333 62 455 80 72 11 189 29 260 40 131 20 349 46 615 74 80 9 156 18 170
20 14 3 90 9 170 15 80 5 235 16 345 25 256 19 818 43 1190 51 407 8 1118 -15
1705 -57 841 -59 1707 -185 2367 -343 172 -41 132 -47 553 74 102 29 189 56
194 61 5 4 -9 12 -30 18 -22 6 -109 31 -194 55 -150 43 -363 97 -600 151 -186
42 -237 53 -390 80 -80 15 -172 32 -205 40 -33 7 -82 16 -110 20 -27 3 -88 12
-135 20 -202 34 -509 75 -755 100 -82 8 -175 19 -205 24 -30 6 -111 13 -180
16 -69 3 -177 12 -240 20 -63 8 -189 17 -280 20 -91 3 -259 12 -375 20 -261
17 -1050 26 -1450 15z"/>
<path d="M495 4521 c-49 -43 -90 -83 -90 -89 0 -12 117 -120 160 -148 23 -15
28 -13 145 64 l121 79 -33 25 c-18 13 -65 45 -103 70 -39 25 -77 53 -84 62 -7
9 -16 16 -20 15 -3 0 -46 -35 -96 -78z"/>
<path d="M12487 4514 c-64 -42 -117 -79 -117 -83 0 -3 53 -41 117 -85 134 -90
112 -92 235 13 l78 66 -88 82 c-48 45 -92 82 -98 83 -6 0 -63 -34 -127 -76z"/>
<path d="M12953 4504 c-29 -35 -53 -67 -53 -72 0 -14 97 -133 107 -131 4 1 22
28 40 62 l32 60 -34 73 c-18 41 -35 74 -37 73 -2 0 -27 -29 -55 -65z"/>
<path d="M156 4513 c-39 -63 -39 -104 0 -171 l31 -53 57 70 57 70 -52 65 c-29
37 -55 66 -58 66 -4 0 -19 -21 -35 -47z"/>
<path d="M778 4317 c-70 -45 -128 -85 -128 -88 0 -7 181 -129 227 -152 l31
-17 164 84 164 83 -116 58 c-63 31 -136 70 -161 86 -25 16 -48 29 -50 28 -2 0
-61 -37 -131 -82z"/>
<path d="M12175 4338 c-60 -32 -134 -68 -162 -80 -29 -12 -53 -24 -53 -27 0
-3 74 -43 165 -89 146 -73 167 -82 187 -71 66 35 228 151 223 160 -7 10 -157
112 -215 145 l-35 20 -110 -58z"/>
<path d="M288 4311 c-70 -81 -71 -84 -28 -134 10 -12 34 -41 53 -64 l35 -42
85 72 c47 40 86 77 86 82 1 6 -27 33 -60 60 -34 28 -71 62 -83 76 l-22 26 -66
-76z"/>
<path d="M12760 4309 c-47 -39 -86 -74 -88 -78 -2 -7 159 -152 172 -155 8 -1
126 136 126 147 0 8 -113 155 -120 156 -3 0 -43 -31 -90 -70z"/>
<path d="M13084 4289 c-34 -56 -35 -71 -9 -119 l23 -45 7 35 c3 19 5 64 3 100
l-3 65 -21 -36z"/>
<path d="M81 4225 c1 -47 5 -85 9 -85 5 0 19 19 32 43 l24 42 -24 43 c-13 23
-28 42 -33 42 -6 0 -9 -36 -8 -85z"/>
<path d="M5955 4210 c-71 -4 -254 -13 -405 -19 -151 -6 -340 -18 -420 -26 -80
-8 -194 -17 -255 -20 -147 -8 -226 -15 -235 -20 -4 -3 -85 -12 -181 -20 -95
-9 -176 -18 -179 -20 -4 -2 -58 -9 -121 -15 -63 -6 -152 -17 -199 -25 -47 -8
-148 -23 -225 -35 -239 -35 -618 -105 -900 -165 -38 -8 -74 -15 -80 -15 -5 0
-5 -4 1 -10 28 -28 773 -166 1239 -229 440 -60 1109 -123 1505 -141 118 -5
305 -14 415 -20 254 -12 1143 -12 1380 0 99 5 288 14 419 20 132 6 281 15 331
20 50 5 185 16 300 25 116 8 221 17 235 20 14 3 86 12 160 19 258 28 405 46
495 61 50 8 169 26 265 40 167 25 377 62 485 85 28 5 122 24 210 40 88 17 183
36 210 44 l50 13 -40 12 c-46 13 -243 57 -325 72 -30 5 -77 14 -105 20 -89 18
-268 50 -360 63 -130 19 -297 45 -395 61 -47 8 -136 19 -198 25 -62 6 -134 15
-160 19 -26 5 -87 12 -137 16 -49 4 -133 13 -185 20 -52 7 -153 16 -225 20
-71 3 -164 11 -205 16 -41 5 -212 16 -380 24 -168 8 -388 19 -490 25 -207 11
-1094 11 -1295 0z"/>
<path d="M11770 4155 c-76 -34 -230 -91 -330 -122 -21 -7 21 -27 118 -58 44
-14 126 -45 183 -70 57 -25 111 -45 120 -45 43 0 342 147 336 165 -3 9 -116
69 -257 136 l-75 35 -95 -41z"/>
<path d="M495 4113 c-49 -41 -91 -79 -93 -83 -3 -9 90 -100 145 -140 l42 -31
112 76 c61 41 115 75 120 75 24 0 0 21 -95 83 -58 38 -110 75 -117 83 -6 8
-14 14 -18 14 -3 -1 -46 -35 -96 -77z"/>
<path d="M1145 4107 l-170 -83 165 -82 c91 -45 173 -82 182 -82 9 0 72 22 140
49 68 27 162 61 211 77 48 15 87 31 87 34 0 3 -42 21 -92 39 -136 48 -270 102
-293 118 -11 7 -29 13 -40 13 -12 0 -97 -37 -190 -83z"/>
<path d="M12488 4107 c-70 -44 -126 -82 -125 -83 1 -1 56 -38 122 -83 118 -79
120 -80 145 -64 38 25 160 135 160 144 0 5 -17 23 -37 41 -21 18 -60 54 -88
80 l-50 46 -127 -81z"/>
<path d="M153 4101 c-18 -33 -33 -67 -33 -75 0 -18 49 -124 60 -131 4 -3 33
24 65 60 l56 65 -53 69 c-29 39 -55 70 -58 70 -3 1 -20 -26 -37 -58z"/>
<path d="M12952 4095 c-29 -35 -52 -69 -52 -74 0 -5 18 -30 40 -55 21 -26 44
-54 49 -64 12 -22 20 -14 60 61 l31 57 -35 70 c-19 39 -37 70 -38 70 -2 0 -27
-29 -55 -65z"/>
<path d="M885 3976 c-11 -7 -68 -43 -127 -81 -60 -37 -108 -70 -108 -74 0 -7
19 -20 155 -107 50 -32 97 -57 105 -56 8 0 60 25 115 54 55 29 124 64 153 77
28 14 52 27 51 30 0 3 -54 32 -120 65 -66 32 -136 69 -155 82 -40 27 -42 28
-69 10z"/>
<path d="M1680 3924 c-96 -35 -195 -72 -219 -83 l-43 -18 58 -28 c33 -16 134
-54 226 -86 l168 -59 132 40 c73 22 167 50 208 61 41 12 95 27 120 35 25 7 60
16 79 19 48 10 33 16 -171 75 -95 27 -215 63 -266 79 -52 17 -99 30 -105 30
-7 -1 -91 -30 -187 -65z"/>
<path d="M11275 3976 c-17 -7 -138 -44 -270 -81 -132 -37 -242 -69 -244 -71
-7 -6 44 -23 229 -75 102 -28 218 -62 259 -76 l73 -24 122 42 c66 22 168 59
225 82 120 47 121 46 -23 101 -337 128 -321 124 -371 102z"/>
<path d="M12185 3934 c-55 -29 -130 -66 -167 -82 l-67 -28 168 -86 169 -86 53
32 c30 18 89 56 132 84 l78 51 -123 82 c-67 44 -127 83 -133 84 -5 2 -55 -21
-110 -51z"/>
<path d="M302 3920 c-24 -27 -52 -60 -63 -74 l-20 -26 63 -79 63 -79 27 21
c112 92 147 123 145 132 -3 14 -152 155 -163 154 -5 0 -28 -22 -52 -49z"/>
<path d="M12795 3932 c-22 -20 -59 -53 -83 -72 -49 -41 -52 -34 59 -132 l75
-67 62 74 c34 41 62 77 62 81 0 12 -115 153 -125 153 -5 0 -28 -16 -50 -37z"/>
<path d="M86 3863 c-3 -27 -5 -69 -4 -95 1 -56 14 -52 43 12 17 39 17 41 0 80
-26 57 -32 57 -39 3z"/>
<path d="M13092 3898 c-5 -7 -17 -28 -27 -47 -16 -32 -16 -35 7 -77 12 -24 26
-44 30 -44 5 0 8 41 8 90 0 50 -2 90 -4 90 -2 0 -8 -6 -14 -12z"/>
<path d="M1157 3708 c-92 -45 -166 -86 -164 -91 3 -10 159 -93 265 -141 73
-33 64 -34 222 31 52 22 139 55 193 73 53 18 96 34 95 35 -2 1 -68 26 -148 55
-80 29 -178 67 -219 86 -41 19 -74 34 -75 34 -1 -1 -76 -37 -169 -82z"/>
<path d="M2530 3775 c-25 -7 -90 -25 -145 -40 -55 -15 -149 -42 -210 -60 -60
-19 -129 -39 -152 -45 -24 -6 -43 -15 -43 -20 0 -6 3 -9 8 -8 11 3 101 -20
267 -68 127 -37 308 -82 640 -159 62 -14 221 -45 455 -89 74 -14 212 -37 305
-51 94 -14 211 -32 260 -40 110 -18 379 -51 535 -65 63 -6 122 -13 131 -16 31
-9 623 -54 969 -74 497 -29 1185 -37 1655 -20 342 12 788 37 975 55 85 8 193
16 240 20 183 12 880 98 1100 135 36 7 106 18 157 25 164 25 597 112 803 161
232 55 306 74 465 119 83 24 175 49 205 56 30 7 59 16 63 19 8 7 -69 31 -393
121 -185 52 -227 58 -281 41 -31 -10 -123 -31 -364 -81 -291 -62 -619 -118
-875 -152 -46 -6 -87 -12 -90 -14 -4 -2 -73 -11 -155 -20 -82 -9 -152 -18
-155 -20 -4 -2 -84 -11 -179 -20 -96 -8 -176 -17 -180 -19 -3 -2 -80 -9 -171
-15 -91 -7 -239 -18 -330 -27 -91 -8 -282 -19 -425 -25 -143 -5 -359 -14 -480
-19 -280 -11 -783 -11 -1085 0 -450 17 -890 39 -898 44 -5 3 -92 10 -193 16
-101 6 -233 17 -294 25 -60 7 -148 17 -195 20 -47 4 -125 13 -175 20 -49 8
-139 19 -200 25 -60 6 -126 15 -145 20 -19 5 -62 12 -95 15 -33 3 -94 13 -135
20 -41 8 -102 17 -135 20 -33 3 -103 15 -155 25 -52 10 -189 37 -305 60 -212
42 -318 65 -456 100 -87 23 -80 23 -139 5z"/>
<path d="M11751 3739 c-61 -26 -158 -63 -214 -81 -56 -18 -104 -34 -106 -35
-9 -6 9 -14 110 -49 57 -19 153 -56 212 -81 l108 -46 57 23 c72 29 292 139
292 145 0 5 -170 92 -276 140 l-71 32 -112 -48z"/>
<path d="M530 3734 c-30 -26 -72 -62 -94 -81 l-38 -35 33 -35 c19 -19 62 -56
95 -83 l61 -48 115 76 c63 42 114 82 115 87 0 8 -220 166 -230 165 -1 0 -27
-21 -57 -46z"/>
<path d="M12525 3724 c-44 -30 -99 -64 -122 -76 -49 -26 -52 -33 -20 -49 12
-7 68 -43 124 -80 l103 -68 95 81 95 81 -33 30 c-88 79 -155 137 -158 136 -2
0 -40 -25 -84 -55z"/>
<path d="M153 3694 c-18 -31 -33 -63 -33 -72 0 -9 14 -46 31 -82 l31 -65 49
55 c75 83 74 77 16 153 -29 36 -54 66 -57 66 -3 0 -20 -24 -37 -55z"/>
<path d="M12948 3683 l-56 -67 41 -49 c23 -27 49 -58 58 -69 16 -20 17 -19 53
48 l36 68 -31 61 c-17 33 -34 63 -38 67 -4 5 -32 -22 -63 -59z"/>
<path d="M819 3527 c-126 -80 -169 -109 -168 -116 0 -6 75 -57 188 -127 l66
-41 162 81 c89 45 162 83 162 86 1 4 -287 155 -318 168 -4 1 -45 -22 -92 -51z"/>
<path d="M1720 3530 c-191 -67 -282 -104 -282 -115 -1 -43 785 -293 1272 -404
47 -11 126 -29 175 -40 457 -105 1326 -235 1875 -281 69 -6 202 -17 295 -25
94 -8 258 -19 365 -25 107 -6 281 -15 385 -21 243 -13 1352 -13 1595 0 500 27
743 42 830 51 52 5 176 17 275 25 99 9 187 18 195 20 8 2 65 9 125 15 194 18
874 116 985 141 25 6 81 17 125 24 151 26 294 56 460 95 44 11 130 31 190 45
240 56 492 127 745 211 193 64 440 156 440 164 0 3 -15 12 -32 19 -57 23 -291
112 -352 133 l-58 20 -127 -37 c-69 -20 -184 -54 -256 -75 -243 -72 -660 -170
-935 -220 -63 -12 -158 -30 -210 -40 -52 -10 -160 -28 -240 -40 -80 -12 -185
-28 -235 -36 -110 -18 -443 -60 -545 -69 -41 -4 -120 -13 -175 -20 -55 -8
-149 -16 -210 -20 -60 -3 -173 -13 -250 -21 -77 -8 -250 -19 -385 -25 -135 -5
-299 -14 -365 -19 -205 -15 -1404 -12 -1652 4 -120 8 -297 18 -393 21 -96 3
-233 12 -305 20 -71 7 -175 16 -230 20 -114 6 -422 39 -570 60 -55 8 -136 17
-180 20 -44 4 -109 13 -145 20 -36 7 -92 16 -125 19 -138 16 -585 96 -845 152
-63 14 -160 36 -215 50 -55 14 -143 34 -195 45 -98 22 -488 131 -597 168 -34
12 -68 21 -75 20 -7 -1 -74 -22 -148 -49z"/>
<path d="M12165 3518 c-60 -32 -130 -67 -155 -77 -51 -21 -61 -36 -28 -46 13
-4 85 -38 161 -76 75 -38 142 -69 148 -69 14 0 249 152 249 162 0 10 -229 160
-249 163 -9 2 -65 -24 -126 -57z"/>
<path d="M318 3532 c-19 -20 -49 -56 -67 -79 l-32 -42 62 -76 c34 -41 65 -75
69 -75 11 0 165 141 165 151 0 4 -36 41 -81 83 l-81 75 -35 -37z"/>
<path d="M12773 3505 c-39 -35 -80 -68 -90 -74 -16 -10 -9 -19 67 -91 47 -43
88 -79 91 -80 3 0 35 33 72 74 l66 73 -60 74 c-33 41 -63 77 -67 81 -4 3 -39
-22 -79 -57z"/>
<path d="M85 3469 c-4 -16 -4 -57 0 -91 l7 -60 19 28 c30 46 32 77 8 118 -11
20 -22 36 -24 36 -2 0 -6 -14 -10 -31z"/>
<path d="M13071 3454 l-23 -45 23 -44 c15 -29 26 -40 31 -32 10 16 10 167 0
167 -5 0 -19 -21 -31 -46z"/>
<path d="M1210 3326 c-204 -96 -232 -112 -218 -123 33 -27 270 -137 473 -220
311 -128 848 -291 1255 -382 47 -10 137 -30 200 -45 351 -79 917 -170 1390
-225 765 -89 1496 -131 2290 -131 378 0 905 14 1160 30 262 17 573 40 610 45
19 3 105 12 190 20 257 23 607 65 825 100 301 48 418 67 480 80 39 7 133 25
210 40 77 14 178 35 225 46 47 11 114 26 150 35 197 45 439 108 665 173 62 18
275 89 450 151 118 42 442 181 544 234 l103 53 -53 31 c-30 17 -107 55 -171
86 l-117 55 -121 -50 c-409 -166 -1067 -354 -1630 -464 -124 -25 -259 -52
-300 -60 -41 -8 -149 -26 -240 -40 -91 -13 -208 -31 -260 -40 -116 -18 -312
-43 -440 -56 -52 -5 -142 -16 -200 -24 -58 -8 -172 -19 -255 -25 -82 -5 -186
-14 -230 -19 -44 -5 -145 -12 -225 -16 -80 -3 -239 -13 -355 -23 -173 -13
-353 -16 -1025 -16 -544 1 -857 5 -940 13 -69 6 -222 16 -340 21 -118 6 -278
17 -355 25 -77 8 -187 17 -245 20 -58 4 -131 11 -163 16 -33 6 -120 16 -195
24 -152 15 -343 39 -442 55 -36 6 -110 17 -165 25 -149 20 -302 45 -375 60
-36 8 -128 25 -205 40 -77 14 -178 34 -225 45 -47 11 -128 29 -180 41 -481
110 -998 267 -1312 400 -65 27 -119 49 -120 49 -2 -1 -55 -25 -118 -54z"/>
<path d="M544 3337 c-84 -67 -145 -127 -139 -136 3 -6 45 -43 93 -84 l87 -74
123 82 123 82 -113 78 c-62 43 -117 79 -123 81 -5 2 -28 -11 -51 -29z"/>
<path d="M12482 3290 l-123 -78 31 -22 c68 -48 209 -140 216 -140 7 0 194 149
194 155 0 7 -182 165 -189 164 -3 0 -61 -36 -129 -79z"/>
<path d="M149 3277 l-36 -72 36 -69 36 -68 33 38 c19 22 45 53 59 71 l25 32
-52 63 c-29 35 -55 66 -59 70 -4 4 -23 -25 -42 -65z"/>
<path d="M13000 3342 c0 -4 -22 -33 -50 -64 -27 -31 -50 -61 -50 -67 0 -10
102 -143 106 -138 17 18 64 113 64 128 0 21 -55 149 -64 149 -3 0 -6 -4 -6 -8z"/>
<path d="M879 3157 c-66 -40 -229 -148 -229 -151 0 -5 167 -118 220 -148 104
-60 395 -200 531 -256 871 -361 2200 -639 3539 -742 80 -6 190 -15 245 -20
559 -53 2027 -58 2685 -10 69 6 193 14 275 20 347 24 996 97 1285 145 47 7
108 16 135 20 28 3 111 18 185 31 74 14 171 32 215 40 221 40 516 106 805 181
427 110 779 230 1170 398 209 89 595 309 595 337 0 13 -210 156 -241 164 -12
3 -44 -9 -84 -31 -345 -195 -988 -422 -1627 -575 -284 -68 -318 -76 -473 -105
-74 -14 -166 -32 -205 -40 -67 -14 -242 -44 -505 -85 -159 -25 -405 -57 -495
-65 -38 -3 -113 -12 -165 -20 -52 -7 -135 -16 -185 -20 -49 -3 -151 -12 -225
-20 -74 -8 -223 -19 -330 -25 -107 -6 -247 -15 -310 -21 -225 -19 -1105 -30
-1600 -19 -261 6 -524 15 -585 20 -60 5 -204 14 -320 20 -115 6 -239 15 -275
20 -36 5 -130 14 -210 20 -80 6 -188 17 -240 25 -52 8 -131 17 -175 20 -44 3
-125 12 -180 20 -55 8 -149 22 -210 31 -103 14 -205 30 -450 69 -55 8 -113 20
-130 25 -16 5 -50 11 -75 15 -364 51 -1246 285 -1615 428 -22 9 -83 32 -135
52 -211 82 -443 189 -538 249 l-39 24 -34 -21z"/>
<path d="M282 3084 l-63 -76 40 -51 c21 -29 51 -65 65 -81 l25 -28 32 26 c17
15 57 49 88 78 l57 51 -87 79 c-48 43 -89 78 -91 78 -2 0 -31 -34 -66 -76z"/>
<path d="M12756 3083 l-89 -77 40 -35 c82 -75 134 -121 138 -121 2 0 31 32 65
71 36 42 59 77 56 86 -7 18 -109 152 -116 152 -3 0 -45 -34 -94 -76z"/>
<path d="M85 3047 c-4 -29 -3 -73 2 -98 l9 -44 23 49 c22 48 22 50 6 92 -23
62 -33 62 -40 1z"/>
<path d="M13073 3053 c-20 -53 -19 -55 4 -110 14 -34 17 -36 24 -18 11 28 11
175 0 175 -5 0 -18 -21 -28 -47z"/>
<path d="M12589 2951 c-124 -97 -451 -271 -736 -392 -197 -84 -186 -80 -466
-175 -447 -152 -1113 -317 -1627 -404 -143 -24 -381 -61 -482 -75 -58 -7 -133
-18 -165 -24 -32 -5 -94 -13 -138 -16 -44 -4 -123 -13 -175 -21 -88 -13 -259
-29 -570 -54 -69 -5 -179 -15 -245 -20 -400 -34 -1297 -54 -1805 -41 -489 13
-818 27 -950 41 -52 5 -149 12 -215 15 -66 4 -174 12 -240 20 -66 7 -163 17
-215 20 -52 4 -116 11 -142 16 -26 4 -121 16 -210 25 -89 8 -166 18 -171 21
-4 2 -56 10 -115 18 -161 19 -507 75 -627 101 -79 17 -191 38 -310 58 -44 8
-105 20 -135 29 -30 8 -98 24 -150 37 -199 46 -271 65 -485 126 -492 141 -891
293 -1235 471 -91 47 -216 119 -278 160 -62 41 -117 73 -122 71 -24 -8 -181
-151 -177 -161 6 -20 156 -143 262 -215 481 -329 1153 -586 2110 -807 33 -8
89 -21 125 -29 174 -41 719 -138 930 -166 47 -6 105 -15 130 -20 25 -6 108
-17 185 -25 77 -9 217 -25 310 -36 777 -89 1818 -134 2572 -111 534 16 814 29
1018 47 94 8 211 17 260 20 88 6 344 32 580 60 66 8 149 17 185 20 36 4 90 11
120 16 56 10 266 42 395 60 134 19 683 125 775 149 19 5 107 26 195 46 88 20
228 56 310 79 83 23 195 55 250 70 112 32 543 181 620 215 28 12 88 38 135 57
154 62 483 237 630 335 80 53 180 129 222 170 l77 73 -94 82 -93 83 -23 -19z"/>
<path d="M174 2917 c-5 -12 -22 -42 -36 -67 l-27 -45 37 -73 c34 -68 37 -71
52 -54 8 11 34 42 57 71 l42 52 -50 65 c-28 35 -54 66 -58 68 -3 2 -11 -5 -17
-17z"/>
<path d="M12957 2879 c-27 -34 -51 -67 -53 -74 -5 -12 91 -135 104 -135 11 1
63 113 62 133 0 15 -56 137 -63 137 -1 0 -24 -28 -50 -61z"/>
<path d="M285 2678 l-66 -79 65 -83 c69 -88 184 -198 303 -287 325 -245 891
-503 1493 -680 74 -21 157 -46 183 -54 94 -29 574 -144 722 -174 214 -43 449
-87 528 -100 37 -6 95 -16 130 -21 143 -23 408 -61 487 -70 47 -5 162 -19 255
-30 373 -44 772 -78 1064 -90 119 -6 306 -15 416 -21 249 -15 1307 -15 1506 0
80 6 254 15 385 21 131 6 307 17 389 24 83 8 195 17 250 21 55 3 150 12 210
20 61 7 137 16 170 19 84 9 290 35 415 52 385 55 565 83 613 94 23 5 139 28
257 51 215 41 272 53 580 128 279 67 730 205 995 304 405 151 851 397 1090
601 85 72 244 249 245 271 0 11 -107 148 -119 153 -4 1 -49 -34 -101 -78 -366
-312 -993 -601 -1795 -828 -280 -80 -702 -179 -900 -213 -33 -6 -125 -23 -205
-39 -80 -15 -226 -40 -325 -55 -99 -14 -232 -35 -295 -45 -63 -10 -153 -22
-200 -25 -47 -4 -121 -13 -165 -20 -44 -8 -116 -16 -160 -20 -44 -3 -114 -10
-155 -16 -41 -5 -167 -16 -280 -24 -113 -8 -252 -19 -310 -24 -507 -48 -2216
-48 -2730 0 -58 5 -197 16 -310 24 -113 8 -236 19 -275 24 -38 6 -106 13 -150
16 -44 4 -109 11 -145 17 -36 5 -121 16 -190 23 -143 15 -306 38 -430 60 -47
9 -122 20 -168 25 -45 5 -87 12 -93 15 -5 4 -49 13 -97 20 -48 8 -123 21 -167
30 -44 8 -127 25 -185 36 -109 21 -235 50 -330 75 -30 7 -107 26 -170 40 -63
15 -169 42 -235 61 -66 20 -164 48 -219 64 -692 202 -1358 529 -1663 817 l-52
49 -66 -79z"/>
<path d="M87 2650 c-4 -30 -7 -77 -7 -104 0 -39 2 -46 13 -37 8 6 22 28 32 50
17 38 17 40 -7 93 l-24 53 -7 -55z"/>
<path d="M13072 2645 l-21 -44 21 -52 c18 -42 23 -48 29 -33 10 26 11 174 1
174 -4 0 -18 -20 -30 -45z"/>
<path d="M183 2518 c-6 -7 -23 -37 -38 -65 l-28 -53 38 -82 c68 -149 164 -270
320 -404 295 -253 721 -474 1294 -671 210 -72 526 -166 726 -217 161 -40 489
-115 573 -130 42 -8 149 -28 237 -45 735 -140 1652 -234 2635 -272 388 -15
1375 -6 1685 15 127 8 304 20 395 26 223 14 486 36 655 55 329 38 556 66 645
80 52 9 167 27 255 41 199 31 554 97 700 130 61 14 142 32 180 40 214 47 696
181 905 252 902 309 1473 676 1668 1072 23 46 42 92 42 102 0 21 -51 128 -61
128 -4 0 -40 -38 -81 -85 -339 -394 -1097 -766 -2113 -1039 -505 -135 -1231
-274 -1735 -332 -69 -8 -150 -18 -180 -23 -30 -5 -91 -12 -135 -16 -44 -3
-129 -12 -190 -20 -60 -8 -159 -17 -220 -20 -60 -3 -171 -13 -245 -20 -74 -8
-252 -19 -395 -25 -143 -6 -336 -15 -430 -20 -216 -12 -1222 -12 -1420 0 -82
5 -260 14 -395 20 -135 6 -288 15 -340 21 -52 5 -189 16 -303 24 -115 8 -225
19 -245 24 -20 5 -84 13 -142 16 -58 4 -114 9 -125 11 -11 3 -81 11 -155 20
-74 8 -157 19 -185 24 -27 6 -103 17 -168 25 -66 8 -123 17 -128 21 -5 3 -55
11 -111 19 -123 16 -383 64 -548 100 -36 8 -83 17 -105 20 -22 4 -65 13 -95
21 -30 7 -131 32 -225 55 -468 112 -905 254 -1280 414 -488 208 -898 480
-1066 705 -28 39 -53 70 -54 70 -1 0 -7 -6 -12 -12z"/>
<path d="M85 2269 c-10 -15 4 -163 21 -232 36 -150 180 -364 339 -506 359
-321 1004 -624 1790 -841 44 -13 109 -31 145 -41 60 -17 276 -70 480 -118 88
-20 381 -78 575 -112 213 -37 619 -96 855 -123 305 -36 389 -45 475 -51 50 -3
135 -10 190 -16 249 -23 768 -50 1185 -60 462 -12 1232 -1 1550 21 74 5 241
17 370 25 129 9 244 18 255 20 11 3 90 9 175 15 85 6 182 15 215 20 33 5 121
16 195 25 181 20 345 41 460 60 52 8 167 27 255 41 238 38 446 77 730 138
1043 226 1926 587 2372 970 247 213 393 467 393 685 0 91 -12 104 -37 44 -42
-100 -199 -280 -357 -407 -503 -407 -1448 -771 -2586 -995 -373 -74 -404 -80
-545 -101 -77 -12 -194 -30 -260 -40 -66 -10 -147 -21 -180 -25 -33 -3 -107
-12 -165 -20 -184 -26 -370 -46 -555 -60 -99 -7 -218 -18 -265 -24 -47 -6
-193 -15 -325 -21 -132 -6 -303 -15 -380 -22 -188 -15 -1517 -15 -1720 1 -82
6 -258 16 -390 21 -132 6 -289 17 -350 24 -60 8 -164 18 -230 21 -66 4 -160
13 -210 20 -49 8 -130 17 -180 20 -49 3 -128 13 -175 20 -47 8 -125 19 -175
24 -90 9 -213 27 -375 56 -47 8 -123 20 -168 25 -46 6 -94 15 -105 19 -12 5
-44 11 -72 15 -132 18 -456 86 -695 147 -41 10 -113 28 -160 39 -128 32 -215
56 -440 126 -718 221 -1244 480 -1585 778 -130 114 -253 257 -296 344 -32 66
-34 68 -44 51z"/>
</g>
</svg>
