<?xml version="1.0" encoding="UTF-8"?>
<svg version="1.1" xmlns="http://www.w3.org/2000/svg" width="512" height="512">
<path d="M0 0 C0.98613281 0.17208984 0.98613281 0.17208984 1.9921875 0.34765625 C2.65476562 0.43917969 3.31734375 0.53070313 4 0.625 C6.71477337 1.76656788 7.4220567 2.80962564 8.8671875 5.41015625 C9.28423569 8.45924789 9.21584171 11.47839271 9.16015625 14.55078125 C9.15591141 15.43296326 9.15166656 16.31514526 9.14729309 17.22406006 C9.13052588 20.03640508 9.09287748 22.84802851 9.0546875 25.66015625 C9.03963812 27.56900005 9.02595016 29.47785511 9.01367188 31.38671875 C8.98062877 36.06147514 8.92886005 40.73569343 8.8671875 45.41015625 C9.96184326 45.38397217 11.05649902 45.35778809 12.18432617 45.33081055 C16.25622008 45.24012406 20.32802526 45.18284076 24.40063477 45.13549805 C26.16120426 45.11039564 27.92166997 45.07630597 29.68188477 45.03295898 C32.21656929 44.9721151 34.74987325 44.94390512 37.28515625 44.921875 C38.46044136 44.88316536 38.46044136 44.88316536 39.6594696 44.84367371 C43.95902021 44.84148061 45.39549235 45.01869691 48.84106445 47.87817383 C49.50968506 48.71372803 50.17830566 49.54928223 50.8671875 50.41015625 C51.1971875 50.74015625 51.5271875 51.07015625 51.8671875 51.41015625 C51.96105131 53.28196565 51.98462554 55.15733685 51.98071289 57.03149414 C51.98063736 58.23266373 51.98056183 59.43383331 51.98048401 60.67140198 C51.97532272 61.97866745 51.97016144 63.28593292 51.96484375 64.6328125 C51.96297948 65.97659757 51.96155562 67.32038332 51.96055603 68.66416931 C51.95673152 72.20697902 51.94690182 75.74974795 51.93585205 79.2925415 C51.92563649 82.90530852 51.9210581 86.51808209 51.91601562 90.13085938 C51.90527948 97.22397505 51.88820386 104.31706299 51.8671875 111.41015625 C52.59832764 111.3944458 53.32946777 111.37873535 54.08276367 111.36254883 C57.4066591 111.30005274 60.7304307 111.26111873 64.0546875 111.22265625 C65.78041992 111.18495117 65.78041992 111.18495117 67.54101562 111.14648438 C68.65283203 111.13681641 69.76464844 111.12714844 70.91015625 111.1171875 C72.44192505 111.09362183 72.44192505 111.09362183 74.00463867 111.06958008 C78.27594015 111.57776477 80.87032669 113.41329544 83.8671875 116.41015625 C85.43631187 121.06890334 85.05137665 125.9906393 85.0546875 130.84765625 C85.06693359 131.78931641 85.07917969 132.73097656 85.09179688 133.70117188 C85.1104412 142.5075094 85.1104412 142.5075094 82.8671875 146.41015625 C78.65097128 150.41015625 78.65097128 150.41015625 74.8671875 150.41015625 C74.8671875 164.93015625 74.8671875 179.45015625 74.8671875 194.41015625 C82.1271875 194.41015625 89.3871875 194.41015625 96.8671875 194.41015625 C96.85719475 192.09991959 96.85719475 192.09991959 96.84700012 189.74301147 C96.78620846 175.23477442 96.74104392 160.72658414 96.71175098 146.21825218 C96.69629019 138.75921891 96.67521583 131.30028079 96.64086914 123.84130859 C96.61094255 117.33912963 96.59160676 110.83701959 96.58492202 104.33477366 C96.58101525 100.89270597 96.57185047 97.45083545 96.54999733 94.00883102 C96.52578457 90.16389047 96.52521961 86.3191418 96.52661133 82.47412109 C96.5158255 81.33620117 96.50503967 80.19828125 96.493927 79.02587891 C96.53331257 68.98270256 96.53331257 68.98270256 99.8671875 64.41015625 C103.09838893 62.32620191 105.71510758 62.15726096 109.51560974 62.14945984 C110.6666217 62.14237503 111.81763367 62.13529022 113.00352478 62.12799072 C114.26233963 62.13046814 115.52115448 62.13294556 116.81811523 62.13549805 C118.16033207 62.13114973 119.50254642 62.12596618 120.84475708 62.12001038 C124.48732973 62.10662201 128.12979862 62.10604151 131.77239108 62.10857368 C134.81417077 62.10964349 137.85592947 62.10475976 140.89770466 62.09996825 C148.07415306 62.08887366 155.25054912 62.0884354 162.42700195 62.09448242 C169.82858522 62.10052327 177.22997843 62.08820837 184.63152927 62.06691235 C190.98833568 62.04929535 197.34508159 62.04329514 203.70191151 62.0465501 C207.49764585 62.04836293 211.29324461 62.04572685 215.08895683 62.03183556 C218.65867977 62.01926011 222.22810647 62.02119838 225.79782486 62.03424644 C227.73033164 62.03773961 229.66284746 62.02643217 231.59532166 62.01467896 C233.32606934 62.02520042 233.32606934 62.02520042 235.09178162 62.03593445 C236.59250292 62.03568284 236.59250292 62.03568284 238.12354183 62.03542614 C241.35157268 62.4763141 243.23424847 63.52408269 245.8671875 65.41015625 C248.13973175 68.59694244 248.11066511 71.4363957 248.09423828 75.28027344 C248.09408722 76.46119568 248.09393616 77.64211792 248.09378052 78.85882568 C248.08345795 80.12873352 248.07313538 81.39864136 248.0625 82.70703125 C248.05825516 84.66289154 248.05825516 84.66289154 248.05392456 86.65826416 C248.04630471 90.11724575 248.02667058 93.57605818 248.0045166 97.03497314 C247.98402253 100.56756299 247.97491524 104.10018028 247.96484375 107.6328125 C247.94342298 114.55866304 247.90930706 121.48440151 247.8671875 128.41015625 C248.59302032 128.4012738 249.31885315 128.39239136 250.06668091 128.38323975 C256.92244375 128.30293779 263.77813587 128.24211274 270.63424873 128.20290756 C274.15871444 128.18207356 277.68279003 128.15383423 281.20703125 128.10839844 C285.26305793 128.05643669 289.31867779 128.03717658 293.375 128.01953125 C294.63458527 127.99888611 295.89417053 127.97824097 297.19192505 127.95697021 C308.16676747 127.95416208 308.16676747 127.95416208 312.8671875 132.41015625 C316.35620845 137.64368768 316.05697628 143.10907428 316.18359375 149.2109375 C316.20437485 150.04731247 316.22515594 150.88368744 316.24656677 151.7454071 C316.31169784 154.40441046 316.370777 157.06350853 316.4296875 159.72265625 C316.47290742 161.53060856 316.5165228 163.33855147 316.56054688 165.14648438 C316.66734166 169.56761247 316.76871075 173.98883537 316.8671875 178.41015625 C317.41246094 177.70439453 317.41246094 177.70439453 317.96875 176.984375 C318.47148437 176.36175781 318.97421875 175.73914063 319.4921875 175.09765625 C319.97945313 174.48277344 320.46671875 173.86789062 320.96875 173.234375 C325.59306035 168.79085045 330.092327 168.03204209 336.33789062 168.00610352 C337.42202492 167.99580864 337.42202492 167.99580864 338.52806091 167.98530579 C340.90172327 167.96710124 343.27472076 167.97086548 345.6484375 167.9765625 C347.30700901 167.97199808 348.96557862 167.96669173 350.62414551 167.9606781 C354.09407249 167.95175983 357.56376915 167.95415593 361.03369141 167.96411133 C365.47239902 167.97560767 369.91031186 167.95537332 374.3489151 167.92619419 C377.77196266 167.90781852 381.19482015 167.90812719 384.61790466 167.91383171 C386.25411597 167.91398472 387.89034032 167.90795762 389.52650452 167.89554024 C391.81700053 167.88060297 394.10603306 167.89132493 396.39648438 167.90844727 C398.34790344 167.90869652 398.34790344 167.90869652 400.33874512 167.90895081 C405.33277323 168.61833863 408.43857282 170.79105961 411.7421875 174.53515625 C414.29077746 181.04821947 413.33801282 187.01063069 410.5859375 193.31640625 C409.53222383 195.52359346 408.45796443 197.72104832 407.3671875 199.91015625 C406.77835795 201.1284314 406.1915797 202.3476998 405.60668945 203.56787109 C404.35666842 206.17032966 403.09699753 208.76779417 401.83056641 211.36230469 C399.85208182 215.42651813 397.92186022 219.51240092 396.00390625 223.60546875 C395.52008484 224.63794739 395.52008484 224.63794739 395.02648926 225.69128418 C394.36841628 227.09616918 393.71047847 228.5011175 393.05267334 229.90612793 C391.36746685 233.50122137 389.67380883 237.09232602 387.98046875 240.68359375 C387.29507232 242.13768951 386.60968822 243.59179108 385.92431641 245.04589844 C385.41484467 246.12671692 385.41484467 246.12671692 384.89508057 247.22937012 C381.84258167 253.70557615 378.79186531 260.18262133 375.7421875 266.66015625 C375.24625092 267.71340591 375.24625092 267.71340591 374.74029541 268.78793335 C370.55236621 277.68353568 366.37845641 286.58551631 362.22509766 295.49731445 C361.04616792 298.02692032 359.86485609 300.55538833 358.68115234 303.08276367 C356.1547157 308.48154866 353.64437618 313.88456293 351.20703125 319.32421875 C350.80605225 320.20601807 350.40507324 321.08781738 349.99194336 321.99633789 C349.27572769 323.57319388 348.57082234 325.15527203 347.88110352 326.74389648 C345.64746922 331.61868726 343.27144394 334.31194926 338.8671875 337.41015625 C335.4638685 338.54459592 332.87342023 338.53906061 329.28347301 338.54437733 C328.27048543 338.54790567 328.27048543 338.54790567 327.23703346 338.5515053 C324.9577449 338.55820054 322.67851328 338.55773692 320.3992157 338.55732727 C318.75510646 338.56062556 317.11099803 338.56435105 315.46689063 338.56846875 C310.93602319 338.57850065 306.40516899 338.58220745 301.87429202 338.58485806 C296.99278805 338.58875751 292.11129462 338.598336 287.22979736 338.60707092 C275.43559151 338.6268441 263.64138479 338.63690201 251.84716651 338.64579871 C246.29663249 338.65017967 240.74609944 338.65554693 235.19556618 338.66078758 C216.7511283 338.67779969 198.30669103 338.69229515 179.86224651 338.69953632 C175.07458686 338.70144629 170.28692721 338.70336662 165.49926758 338.70532227 C163.71429019 338.70604788 163.71429019 338.70604788 161.89325265 338.70678815 C142.60458543 338.71509327 123.31598012 338.74043843 104.02733996 338.77290294 C84.23617757 338.80594248 64.44504669 338.82398222 44.65385658 338.82718056 C33.53688042 338.8293484 22.4199946 338.83813708 11.30304527 338.86364174 C1.83796991 338.88530622 -7.62699318 338.89342011 -17.09209052 338.88367496 C-21.92320315 338.87911808 -26.75408393 338.88109687 -31.58516502 338.9004364 C-36.0061525 338.91798184 -40.42673751 338.9171409 -44.84772875 338.90153911 C-46.44868222 338.89914989 -48.04966294 338.90355426 -49.6505746 338.91536776 C-51.82473277 338.93042006 -53.99745252 338.92086249 -56.17157459 338.90514088 C-57.98381872 338.90660609 -57.98381872 338.90660609 -59.83267385 338.9081009 C-64.85517781 338.15027547 -68.90515619 335.31731915 -72.1328125 331.41015625 C-75.35157771 321.75386061 -71.44044964 314.61230539 -67.1953125 305.97265625 C-66.63134766 304.78994141 -66.06738281 303.60722656 -65.48632812 302.38867188 C-63.73035165 298.71479055 -61.95385361 295.05223847 -60.1328125 291.41015625 C-59.65073941 288.42130306 -59.57761795 286.31470966 -61.19433594 283.68066406 C-62.74104807 281.74120319 -64.3560615 279.88596031 -66.0078125 278.03515625 C-82.03302079 259.18351305 -99.95051763 230.58447026 -99.453125 204.96875 C-98.98923068 201.26325268 -97.64162186 199.12803306 -95.1328125 196.41015625 C-91.1328125 194.41015625 -91.1328125 194.41015625 -73.1328125 194.41015625 C-73.1328125 179.89015625 -73.1328125 165.37015625 -73.1328125 150.41015625 C-74.7828125 150.08015625 -76.4328125 149.75015625 -78.1328125 149.41015625 C-80.88543643 147.11630297 -81.99065346 145.83663336 -83.1328125 142.41015625 C-83.36343969 138.78911556 -83.31797812 135.1627794 -83.3203125 131.53515625 C-83.33255859 130.54128906 -83.34480469 129.54742187 -83.35742188 128.5234375 C-83.36032227 127.07904297 -83.36032227 127.07904297 -83.36328125 125.60546875 C-83.36739014 124.72906738 -83.37149902 123.85266602 -83.37573242 122.94970703 C-83.02987771 119.33404799 -82.00548479 116.47253991 -79.6953125 113.66015625 C-76.54311467 111.13839798 -73.44877976 111.29208235 -69.58984375 111.3125 C-68.51669922 111.31572266 -67.44355469 111.31894531 -66.33789062 111.32226562 C-65.21833984 111.33064453 -64.09878906 111.33902344 -62.9453125 111.34765625 C-61.24858398 111.35442383 -61.24858398 111.35442383 -59.51757812 111.36132812 C-56.72260323 111.37312127 -53.9277343 111.38957975 -51.1328125 111.41015625 C-51.13725372 110.73443573 -51.14169495 110.05871521 -51.14627075 109.36251831 C-51.19055846 102.32210405 -51.22070163 95.28172946 -51.24267578 88.24121094 C-51.25272589 85.61456698 -51.2663681 82.98793418 -51.28369141 80.36132812 C-51.30798278 76.58330527 -51.31930569 72.80543052 -51.328125 69.02734375 C-51.33844757 67.8552536 -51.34877014 66.68316345 -51.35940552 65.47555542 C-51.36036274 58.50091151 -51.29309863 53.35223617 -47.04418945 47.56567383 C-43.10136924 44.64649901 -40.32704689 44.76456209 -35.55078125 44.921875 C-34.73660233 44.92894974 -33.9224234 44.93602448 -33.08357239 44.9433136 C-30.49486607 44.97120027 -27.90835977 45.03392309 -25.3203125 45.09765625 C-23.56057822 45.12274675 -21.80080987 45.14555861 -20.04101562 45.16601562 C-15.73743954 45.22100753 -11.4354984 45.30723633 -7.1328125 45.41015625 C-7.15899658 44.22462158 -7.18518066 43.03908691 -7.2121582 41.81762695 C-7.30280271 37.41026759 -7.36011338 33.00299025 -7.4074707 28.5949707 C-7.43258249 26.68890518 -7.46667895 24.78293566 -7.51000977 22.87719727 C-7.57080994 20.13403627 -7.59905495 17.39215039 -7.62109375 14.6484375 C-7.64690018 13.79929276 -7.6727066 12.95014801 -7.69929504 12.07527161 C-7.70138129 7.65340714 -7.56038115 5.95446913 -4.7355957 2.35839844 C-2.1328125 0.41015625 -2.1328125 0.41015625 0 0 Z " fill="#010202" transform="translate(99.1328125,86.58984375)"/>
<path d="M0 0 C1.9216523 0.00033989 1.9216523 0.00033989 3.88212585 0.00068665 C5.28055164 0.0160066 6.67897387 0.03165459 8.07739258 0.04760742 C9.50799617 0.05320349 10.93860552 0.05747354 12.36921692 0.06047058 C16.13243515 0.07191861 19.89530538 0.10138502 23.65838623 0.13458252 C27.499179 0.16528454 31.34002806 0.17897617 35.1809082 0.1940918 C42.71557197 0.22625511 50.24994912 0.27745051 57.78442383 0.34057617 C56.71112187 3.65614164 55.63096702 6.88842942 54.12719727 10.03393555 C53.81163879 10.69856308 53.49608032 11.36319061 53.17095947 12.04795837 C52.83199646 12.75295975 52.49303345 13.45796112 52.14379883 14.18432617 C51.60562531 15.31488182 51.60562531 15.31488182 51.05657959 16.46827698 C50.28611449 18.08601594 49.51411518 19.70302496 48.74072266 21.31936646 C46.69112173 25.60310913 44.65259742 29.89212221 42.61254883 34.18041992 C42.20174072 35.04316025 41.79093262 35.90590057 41.36767578 36.79478455 C37.10294007 45.75738657 32.90756251 54.75171902 28.72875977 63.75463867 C23.81848203 74.31719167 18.8032052 84.8292367 13.78442383 95.34057617 C12.81389572 95.34644241 11.84336761 95.35230865 10.84342957 95.35835266 C1.70547498 95.41551913 -7.43224024 95.48824862 -16.56995106 95.57629108 C-21.26797083 95.62105457 -25.96590268 95.66029735 -30.6640625 95.68701172 C-35.19647282 95.71298527 -39.72854587 95.75334502 -44.26074791 95.80376244 C-45.99149067 95.82047154 -47.72229182 95.83196058 -49.45310402 95.83819008 C-51.87404521 95.84778749 -54.29411566 95.87579288 -56.71484375 95.90820312 C-57.79270142 95.90605049 -57.79270142 95.90605049 -58.89233398 95.90385437 C-61.75927829 95.95828297 -63.73613075 96.0036776 -66.12187195 97.68009949 C-67.40069418 99.46634391 -67.40069418 99.46634391 -68.21557617 102.34057617 C-75.14557617 102.34057617 -82.07557617 102.34057617 -89.21557617 102.34057617 C-89.87557617 100.69057617 -90.53557617 99.04057617 -91.21557617 97.34057617 C-92.21582528 96.11923474 -92.21582528 96.11923474 -94.21044457 96.22032166 C-95.53927991 96.22365257 -95.53927991 96.22365257 -96.8949604 96.22705078 C-97.91326946 96.22712663 -98.93157852 96.22720247 -99.98074543 96.22728062 C-101.11310561 96.23244159 -102.24546578 96.23760256 -103.41213989 96.24291992 C-104.6045362 96.24433204 -105.7969325 96.24574415 -107.02546203 96.24719906 C-109.65419545 96.25095334 -112.28285414 96.25654129 -114.9115696 96.26511955 C-119.18799566 96.2790008 -123.46441639 96.2860007 -127.74085999 96.29188538 C-132.34437416 96.29853196 -136.94788522 96.30567184 -141.5513947 96.31507206 C-152.97217587 96.33822391 -164.39288723 96.34523147 -175.81369019 96.34228516 C-176.6387612 96.34210274 -177.46383221 96.34192033 -178.31390537 96.34173238 C-185.11105533 96.34020109 -191.90820507 96.33803086 -198.70535484 96.3358314 C-204.83343642 96.33392147 -210.96151774 96.33267617 -217.08959961 96.33227539 C-217.96344806 96.33221107 -218.83729652 96.33214675 -219.73762523 96.33208048 C-233.8913747 96.33192457 -248.0449358 96.36058843 -262.19862665 96.39901042 C-276.72282138 96.43768931 -291.24674809 96.44217622 -305.77097118 96.41573524 C-314.73313324 96.40056516 -323.69442222 96.41258235 -332.65647857 96.45937544 C-338.800619 96.48897066 -344.94418855 96.48564136 -351.08832856 96.45640558 C-354.63398955 96.44053072 -358.17807337 96.43928793 -361.72360039 96.47734261 C-365.56883906 96.51824482 -369.41177723 96.48951591 -373.2571106 96.45410156 C-374.37608644 96.47710831 -375.49506228 96.50011505 -376.64794648 96.52381897 C-384.05796362 96.37485164 -384.05796362 96.37485164 -387.41831565 93.37252617 C-389.19875482 91.10240907 -390.7196553 88.80434884 -392.21557617 86.34057617 C-393.03625932 85.28374783 -393.87422529 84.23992422 -394.73510742 83.21557617 C-406.4551651 68.52058051 -422.21557617 45.95698433 -422.21557617 26.34057617 C-421.37933342 26.3403588 -420.54309067 26.34014144 -419.68150723 26.33991748 C-370.12091787 26.32640216 -320.56040717 26.28692359 -270.99986816 26.21372055 C-265.04931016 26.20495378 -259.09875187 26.19640398 -253.14819336 26.18798828 C-251.9635424 26.18630922 -250.77889144 26.18463016 -249.55834197 26.18290021 C-230.37567595 26.15622913 -211.19303981 26.14713505 -192.01035716 26.14453474 C-172.32771107 26.14147549 -152.64515139 26.11953195 -132.96254432 26.0800516 C-120.81692901 26.05628471 -108.67148618 26.04725429 -96.52585082 26.05706307 C-88.19756196 26.06237805 -79.86942768 26.04935285 -71.54118283 26.02191327 C-66.73589976 26.00662237 -61.93096266 25.99941059 -57.12566948 26.01397896 C-52.72335847 26.0271469 -48.32171739 26.01720385 -43.91948174 25.98913845 C-42.3298219 25.98303693 -40.7401024 25.98530363 -39.15047349 25.99694691 C-30.28633448 26.05677496 -22.65442728 25.70636894 -15.21557617 20.34057617 C-13.10116747 18.05900799 -13.10116747 18.05900799 -12.15307617 15.46557617 C-11.78311523 14.60061523 -11.4131543 13.7356543 -11.03198242 12.84448242 C-10.01116136 9.71363889 -9.61495376 6.60215979 -9.21557617 3.34057617 C-6.75269191 -0.28360301 -4.16395411 -0.02454197 0 0 Z " fill="#FD4B4B" transform="translate(438.215576171875,269.659423828125)"/>
<path d="M0 0 C6.93 0 13.86 0 21 0 C21.66 1.98 22.32 3.96 23 6 C26.19878417 7.61612452 30.16797427 7.15958485 33.69628906 7.20532227 C34.69202942 7.22017166 34.69202942 7.22017166 35.70788574 7.23532104 C37.89376302 7.2668126 40.079662 7.29164437 42.265625 7.31640625 C43.78449049 7.33698645 45.30335038 7.35798321 46.82220459 7.37937927 C50.81371525 7.43448984 54.80527665 7.48394753 58.796875 7.53222656 C62.8724416 7.58252217 66.9479348 7.63816611 71.0234375 7.69335938 C79.01556288 7.80080616 87.00774979 7.90228087 95 8 C93.46205728 12.77095995 91.93938173 17.46950931 89.7734375 22 C89.3815625 22.82371094 88.9896875 23.64742188 88.5859375 24.49609375 C88.18632812 25.32238281 87.78671875 26.14867187 87.375 27 C86.96765625 27.85722656 86.5603125 28.71445312 86.140625 29.59765625 C83.1465853 35.8534147 83.1465853 35.8534147 82 37 C79.9358452 37.09790609 77.86827032 37.12371208 75.80179501 37.12304783 C75.1438638 37.12420167 74.48593259 37.12535552 73.80806407 37.12654433 C71.57595179 37.12921738 69.34390986 37.12468323 67.11180115 37.12025452 C65.50639058 37.12069008 63.90098008 37.12156471 62.29556996 37.12284368 C57.8626081 37.1250916 53.42967017 37.12106332 48.99671137 37.11606562 C44.22435989 37.11176554 39.45200986 37.11320723 34.67965698 37.1139679 C26.40412003 37.11449341 18.12859093 37.11134372 9.85305595 37.10573006 C-2.11212446 37.0976188 -14.07730105 37.09500022 -26.04248392 37.09374207 C-45.45304808 37.09155095 -64.86360804 37.08488927 -84.27416992 37.07543945 C-103.13484679 37.06626686 -121.99552252 37.05918528 -140.85620117 37.05493164 C-142.01787973 37.05466892 -143.17955828 37.05440619 -144.37643922 37.05413551 C-150.2039723 37.05283051 -156.03150538 37.0515668 -161.85903847 37.05032361 C-210.23936188 37.03994915 -258.61968074 37.02232924 -307 37 C-305.77144575 34.22889376 -304.54216636 31.45811272 -303.3125 28.6875 C-302.97283203 27.92115234 -302.63316406 27.15480469 -302.28320312 26.36523438 C-299.55796378 20.22707846 -296.78690205 14.11038566 -294 8 C-293.08874901 7.99853479 -293.08874901 7.99853479 -292.15908891 7.99703997 C-256.1682903 7.93879113 -220.17755624 7.86501197 -184.1868328 7.77101372 C-179.86714989 7.75974531 -175.54746666 7.7486069 -171.2277832 7.73754883 C-169.93780495 7.7342433 -169.93780495 7.7342433 -168.62176653 7.730871 C-154.68978926 7.69548093 -140.75781205 7.67062645 -126.82580648 7.64965298 C-112.53447947 7.62790453 -98.24321089 7.59486324 -83.95193356 7.55129844 C-75.13064253 7.52476521 -66.30942433 7.50708216 -57.48809537 7.50065396 C-51.44221898 7.49540518 -45.39643429 7.47920542 -39.35060702 7.45433434 C-35.8604086 7.44030177 -32.37037442 7.43115503 -28.88014603 7.43499184 C-25.09819236 7.43663523 -21.31675008 7.42002436 -17.53486633 7.39872742 C-16.42883743 7.40357499 -15.32280853 7.40842257 -14.1832636 7.41341704 C-7.01694883 7.49966426 -7.01694883 7.49966426 -1 4 C-0.67 2.68 -0.34 1.36 0 0 Z " fill="#32D7DC" transform="translate(349,372)"/>
<path d="M0 0 C44.88 0 89.76 0 136 0 C136 2.97 136 5.94 136 9 C134.90419113 9.00586624 133.80838226 9.01173248 132.67936707 9.01777649 C122.36413884 9.0749316 112.0491229 9.14765521 101.73411083 9.23571491 C96.43074747 9.28048705 91.12746215 9.319728 85.82397461 9.34643555 C80.70803787 9.37240034 75.59240036 9.41275406 70.47664833 9.46318626 C68.52261381 9.47990127 66.56852747 9.4913866 64.61443138 9.49761391 C61.88220042 9.50720475 59.15074305 9.53520315 56.41870117 9.56762695 C55.60662201 9.56619186 54.79454285 9.56475677 53.95785522 9.5632782 C49.74210251 9.60517789 49.74210251 9.60517789 46.00117493 11.34342957 C44.38575837 14.01634039 44.56512032 15.95584221 45 19 C46.50166583 21.30375481 46.50166583 21.30375481 49 23 C51.64400886 23.40308395 53.87909222 23.56474286 56.52246094 23.54589844 C57.6498745 23.56140495 57.6498745 23.56140495 58.80006409 23.57722473 C61.27838608 23.60666554 63.75589184 23.60815211 66.234375 23.609375 C67.95503295 23.62435586 69.67567651 23.64108281 71.39630127 23.65948486 C75.92051858 23.7031815 80.44454191 23.72316251 84.96893311 23.73822021 C90.39979123 23.76122374 95.8304352 23.81365599 101.26112366 23.86116028 C109.50747173 23.9299968 117.75320463 23.96142752 126 24 C126 38.52 126 53.04 126 68 C87.72 68 49.44 68 10 68 C10 53.48 10 38.96 10 24 C13.3 23.34 16.6 22.68 20 22 C22.36410488 20.06268472 22.36410488 20.06268472 22.3125 16.5625 C22.32222297 13.13217156 22.32222297 13.13217156 20.75854492 11.30932617 C18.56553448 9.67651832 17.26687347 9.57942528 14.55078125 9.48828125 C13.70322266 9.45283203 12.85566406 9.41738281 11.98242188 9.38085938 C10.66081055 9.34702148 10.66081055 9.34702148 9.3125 9.3125 C8.41982422 9.27833984 7.52714844 9.24417969 6.60742188 9.20898438 C4.40538879 9.12655533 2.20271418 9.06159953 0 9 C0 6.03 0 3.06 0 0 Z " fill="#E0EEFA" transform="translate(32,213)"/>
<path d="M0 0 C17.49 0 34.98 0 53 0 C50.7502233 6.74933009 50.7502233 6.74933009 49.34277344 9.69335938 C49.02721497 10.35798691 48.71165649 11.02261444 48.38653564 11.7073822 C48.04757263 12.41238358 47.70860962 13.11738495 47.359375 13.84375 C46.82120148 14.97430565 46.82120148 14.97430565 46.27215576 16.12770081 C45.50169067 17.74543977 44.72969135 19.36244878 43.95629883 20.97879028 C41.9066979 25.26253296 39.86817359 29.55154604 37.828125 33.83984375 C37.41731689 34.70258408 37.00650879 35.5653244 36.58325195 36.45420837 C32.31851624 45.4168104 28.12313868 54.41114285 23.94433594 63.4140625 C19.03337571 73.9780836 14.00961868 84.47980077 9 95 C-16.08 95 -41.16 95 -67 95 C-67 94.67 -67 94.34 -67 94 C-59.08 94 -51.16 94 -43 94 C-42.67 92.35 -42.34 90.7 -42 89 C-41.15491193 87.02587843 -40.24695194 85.07813804 -39.296875 83.15234375 C-38.73556885 82.00467529 -38.1742627 80.85700684 -37.59594727 79.67456055 C-37.29568634 79.06687836 -36.99542542 78.45919617 -36.68606567 77.83309937 C-35.07322512 74.56698288 -33.48078497 71.29093468 -31.88671875 68.015625 C-31.55925156 67.34375656 -31.23178436 66.67188812 -30.89439392 65.97966003 C-27.7034074 59.41939286 -24.62045319 52.81075837 -21.5625 46.1875 C-14.43606667 30.76263221 -7.21874104 15.38199026 0 0 Z " fill="#EC2828" transform="translate(443,270)"/>
<path d="M0 0 C23.76 0 47.52 0 72 0 C72 17.16 72 34.32 72 52 C48.24 52 24.48 52 0 52 C0 34.84 0 17.68 0 0 Z " fill="#B7D1E1" transform="translate(64,147)"/>
<path d="M0 0 C17.49 0 34.98 0 53 0 C53 16.83 53 33.66 53 51 C35.51 51 18.02 51 0 51 C0 34.17 0 17.34 0 0 Z " fill="#E9A256" transform="translate(346,230)"/>
<path d="M0 0 C17.49 0 34.98 0 53 0 C53 16.83 53 33.66 53 51 C35.51 51 18.02 51 0 51 C0 34.17 0 17.34 0 0 Z " fill="#FBBD6A" transform="translate(279,230)"/>
<path d="M0 0 C17.49 0 34.98 0 53 0 C53 16.83 53 33.66 53 51 C35.51 51 18.02 51 0 51 C0 34.17 0 17.34 0 0 Z " fill="#E8A256" transform="translate(211,230)"/>
<path d="M0 0 C17.49 0 34.98 0 53 0 C53 16.83 53 33.66 53 51 C35.51 51 18.02 51 0 51 C0 34.17 0 17.34 0 0 Z " fill="#E8A256" transform="translate(279,164)"/>
<path d="M0 0 C17.16 0 34.32 0 52 0 C52 16.5 52 33 52 50 C34.84 50 17.68 50 0 50 C0 33.5 0 17 0 0 Z " fill="#FFC06C" transform="translate(212,165)"/>
<path d="M0 0 C15.84 0 31.68 0 48 0 C48 14.52 48 29.04 48 44 C32.16 44 16.32 44 0 44 C0 29.48 0 14.96 0 0 Z " fill="#BAD5E5" transform="translate(110,237)"/>
<path d="M0 0 C17.16 0 34.32 0 52 0 C48.62268866 10.13193403 48.62268866 10.13193403 46.7734375 14 C46.3815625 14.82371094 45.9896875 15.64742188 45.5859375 16.49609375 C45.18632812 17.32238281 44.78671875 18.14867187 44.375 19 C43.96765625 19.85722656 43.5603125 20.71445312 43.140625 21.59765625 C40.1465853 27.8534147 40.1465853 27.8534147 39 29 C37.34261557 29.09346915 35.68125356 29.11744977 34.02124023 29.11352539 C32.96021591 29.11344986 31.89919159 29.11337433 30.80601501 29.11329651 C29.07479149 29.10555458 29.07479149 29.10555458 27.30859375 29.09765625 C26.13361832 29.0962413 24.95864288 29.09482635 23.74806213 29.09336853 C19.97784936 29.08774992 16.20769496 29.07519426 12.4375 29.0625 C9.88867273 29.0574874 7.33984453 29.05292408 4.79101562 29.04882812 C-1.47267633 29.03777444 -7.73633399 29.02101821 -14 29 C-12.61103023 25.85109339 -11.21254373 22.70649679 -9.8125 19.5625 C-9.42513672 18.68400391 -9.03777344 17.80550781 -8.63867188 16.90039062 C-8.05375977 15.59038086 -8.05375977 15.59038086 -7.45703125 14.25390625 C-7.10616455 13.46314697 -6.75529785 12.6723877 -6.39379883 11.85766602 C-4.42524861 7.82160361 -2.18080118 3.92544212 0 0 Z " fill="#0FAFBF" transform="translate(392,380)"/>
<path d="M0 0 C44.88 0 89.76 0 136 0 C136 2.97 136 5.94 136 9 C134.90419113 9.00586624 133.80838226 9.01173248 132.67936707 9.01777649 C122.36413884 9.0749316 112.0491229 9.14765521 101.73411083 9.23571491 C96.43074747 9.28048705 91.12746215 9.319728 85.82397461 9.34643555 C80.70803787 9.37240034 75.59240036 9.41275406 70.47664833 9.46318626 C68.52261381 9.47990127 66.56852747 9.4913866 64.61443138 9.49761391 C61.88220042 9.50720475 59.15074305 9.53520315 56.41870117 9.56762695 C55.60662201 9.56619186 54.79454285 9.56475677 53.95785522 9.5632782 C49.79844901 9.59083543 49.79844901 9.59083543 46.09883118 11.27702332 C44.93234703 13.10608043 43.97016856 15.05966287 43 17 C36.4 17 29.8 17 23 17 C22.34 15.02 21.68 13.04 21 11 C18.70691037 9.85345518 17.20090344 9.80270883 14.6484375 9.68359375 C13.79765625 9.64169922 12.946875 9.59980469 12.0703125 9.55664062 C11.18085937 9.51732422 10.29140625 9.47800781 9.375 9.4375 C8.4778125 9.39431641 7.580625 9.35113281 6.65625 9.30664062 C4.43768761 9.20043285 2.21886435 9.09970041 0 9 C0 6.03 0 3.06 0 0 Z " fill="#C9C8C7" transform="translate(32,213)"/>
<path d="M0 0 C7.59 0 15.18 0 23 0 C23 16.83 23 33.66 23 51 C15.41 51 7.82 51 0 51 C0 34.17 0 17.34 0 0 Z " fill="#E0EEFA" transform="translate(64,147)"/>
<path d="M0 0 C44.88 0 89.76 0 136 0 C136 2.97 136 5.94 136 9 C107.62 9 79.24 9 50 9 C50 8.67 50 8.34 50 8 C62.54 8 75.08 8 88 8 C88 5.69 88 3.38 88 1 C58.96 1 29.92 1 0 1 C0 0.67 0 0.34 0 0 Z " fill="#999B9F" transform="translate(32,213)"/>
</svg>
