<svg xmlns="http://www.w3.org/2000/svg" version="1.1" xmlns:xlink="http://www.w3.org/1999/xlink" xmlns:svgjs="http://svgjs.dev/svgjs" width="1500" height="1682" viewBox="0 0 1500 1682"><g transform="matrix(1,0,0,1,-2.335586895306733,0)"><svg viewBox="0 0 321 360" data-background-color="#ffffff" preserveAspectRatio="xMidYMid meet" height="1682" width="1500" xmlns="http://www.w3.org/2000/svg" xmlns:xlink="http://www.w3.org/1999/xlink"><g id="tight-bounds" transform="matrix(1,0,0,1,0.5001844044044219,0)"><svg viewBox="0 0 320 360" height="360" width="320"><g><svg></svg></g><g><svg viewBox="0 0 320 360" height="360" width="320"><g><path d="M294.684 112.125c-8.775-10.699-25.381-16.201-43-22.006-7.56-2.498-15.357-5.097-22.985-8.235-7.695-3.173-15.256-7.257-22.613-11.172-14.952-8.033-30.41-16.336-46.105-16.336-15.661 0-31.119 8.303-46.071 16.336-7.358 3.949-14.952 8.033-22.648 11.205-7.594 3.139-15.425 5.704-22.985 8.236-17.618 5.839-34.224 11.341-42.999 22.006-11.712 14.277-11.442 35.439-11.172 57.817 0.034 3.375 0.068 6.717 0.067 10.024 0 3.308-0.034 6.649-0.101 10.024-0.27 22.411-0.54 43.54 11.172 57.851 8.775 10.666 25.381 16.167 42.966 22.006 7.56 2.498 15.357 5.097 23.019 8.235 7.695 3.173 15.256 7.223 22.579 11.172 14.986 8.067 30.444 16.37 46.105 16.37 15.695 0 31.153-8.303 46.105-16.336 7.358-3.949 14.918-8.033 22.614-11.172 7.594-3.139 15.357-5.704 22.884-8.202 17.72-5.873 34.326-11.374 43.101-22.039 11.712-14.277 11.442-35.439 11.171-57.817-0.034-3.409-0.101-6.75-0.101-10.058 0-3.308 0.034-6.649 0.101-9.991 0.371-22.479 0.641-43.641-11.104-57.918zM305.552 103.215c-15.728-19.171-45.801-23.727-71.486-34.326-22.985-9.45-46.375-28.588-74.051-28.587-27.676 0-51.066 19.137-74.052 28.587-25.719 10.598-55.758 15.155-71.486 34.326-17.078 20.791-14.311 50.121-14.311 76.785 0 26.63-2.768 55.994 14.277 76.785 15.728 19.171 45.801 23.727 71.487 34.326 22.985 9.484 46.375 28.588 74.051 28.587 27.676 0 51.066-19.103 74.051-28.587 25.719-10.598 55.758-15.155 71.486-34.326 17.045-20.791 14.277-50.121 14.277-76.785 0.068-26.664 2.835-55.994-14.243-76.785zM309.872 189.923c0.304 23.221 0.574 45.059-12.083 60.483-9.518 11.577-26.664 17.281-44.822 23.289-7.56 2.498-15.29 5.063-22.715 8.134-7.493 3.071-14.952 7.088-22.175 10.969-15.458 8.303-31.355 16.842-48.062 16.842-16.707 0-32.604-8.539-47.995-16.808-7.257-3.915-14.75-7.932-22.243-11.003-7.527-3.105-15.256-5.67-22.748-8.134-18.192-6.008-35.338-11.712-44.823-23.289-12.623-15.391-12.353-37.262-12.083-60.415 0.034-3.375 0.101-6.683 0.101-9.991 0-3.308-0.034-6.615-0.067-9.991-0.304-23.154-0.574-45.025 12.083-60.415 9.518-11.577 26.664-17.247 44.822-23.289 7.527-2.498 15.256-5.063 22.749-8.134 7.493-3.105 14.986-7.122 22.242-11.003 15.391-8.269 31.322-16.842 47.995-16.842 16.673 0 32.604 8.539 47.995 16.808 7.257 3.915 14.75 7.932 22.243 11.003 7.493 3.105 15.256 5.637 22.715 8.134 18.158 6.008 35.338 11.712 44.822 23.289 12.657 15.425 12.387 37.262 12.083 60.416-0.034 3.409-0.101 6.717-0.101 9.99 0 3.308 0.034 6.615 0.067 9.957z" fill="#0074d9" fill-rule="nonzero" stroke="none" stroke-width="1" stroke-linecap="butt" stroke-linejoin="miter" stroke-miterlimit="10" stroke-dasharray="" stroke-dashoffset="0" font-family="none" font-weight="none" font-size="none" text-anchor="none" style="mix-blend-mode: normal" data-fill-palette-color="tertiary"></path></g><g transform="matrix(1,0,0,1,64,136.8811792086889)"><svg viewBox="0 0 192 86.23764158262219" height="86.23764158262219" width="192"><g><svg viewBox="0 0 192 86.23764158262219" height="86.23764158262219" width="192"><g><svg viewBox="0 0 192 86.23764158262219" height="86.23764158262219" width="192"><g id="textblocktransform"><svg viewBox="0 0 192 86.23764158262219" height="86.23764158262219" width="192" id="textblock"><g><svg viewBox="0 0 192 86.23764158262219" height="86.23764158262219" width="192"><g transform="matrix(1,0,0,1,0,0)"><svg width="192" viewBox="63.52999999999998 -37.839999999999996 188.80999999999997 81.12" height="86.23764158262219" data-palette-color="#ffffff"><svg></svg><svg></svg><g class="wordmark-text-0" data-fill-palette-color="quaternary" id="text-0"><path d="M63.53-18.36v0-2.68c0.16-2.28 0.657-4.36 1.49-6.24 0.827-1.88 1.88-3.463 3.16-4.75 1.273-1.287 2.75-2.373 4.43-3.26 1.673-0.887 3.427-1.533 5.26-1.94 1.833-0.407 3.727-0.61 5.68-0.61v0c1.073 0 2.19 0.09 3.35 0.27 1.167 0.18 2.4 0.463 3.7 0.85 1.3 0.393 2.55 0.967 3.75 1.72 1.193 0.76 2.183 1.653 2.97 2.68v0c1.607 1.967 2.773 4.027 3.5 6.18 0.72 2.16 1.08 4.557 1.08 7.19v0c0.053 5.507-1.15 9.937-3.61 13.29v0l-1.07 1.46c-0.947 1.3-2.3 2.387-4.06 3.26-1.753 0.873-3.51 1.477-5.27 1.81-1.76 0.333-3.533 0.5-5.32 0.5v0c-2.1 0-4.037-0.213-5.81-0.64-1.773-0.42-3.303-0.99-4.59-1.71-1.287-0.713-2.433-1.583-3.44-2.61-1.013-1.027-1.84-2.11-2.48-3.25-0.647-1.133-1.177-2.37-1.59-3.71-0.413-1.333-0.707-2.633-0.88-3.9-0.167-1.273-0.25-2.577-0.25-3.91zM82.96-28.03v0c-0.667 0-1.263 0.157-1.79 0.47-0.533 0.307-0.967 0.68-1.3 1.12-0.333 0.44-0.623 1.03-0.87 1.77-0.24 0.74-0.417 1.407-0.53 2-0.113 0.593-0.203 1.343-0.27 2.25-0.067 0.9-0.103 1.6-0.11 2.1-0.007 0.493-0.01 1.13-0.01 1.91v0c0 0.753 0.027 1.467 0.08 2.14 0.06 0.673 0.183 1.39 0.37 2.15 0.187 0.753 0.43 1.413 0.73 1.98 0.3 0.56 0.717 1.03 1.25 1.41 0.527 0.387 1.13 0.593 1.81 0.62v0c0.72 0 1.357-0.117 1.91-0.35 0.553-0.233 1.017-0.533 1.39-0.9 0.373-0.367 0.69-0.86 0.95-1.48 0.26-0.62 0.46-1.213 0.6-1.78 0.14-0.573 0.247-1.283 0.32-2.13 0.073-0.847 0.117-1.573 0.13-2.18 0.02-0.613 0.03-1.383 0.03-2.31v0c0-0.68-0.02-1.313-0.06-1.9-0.047-0.587-0.117-1.24-0.21-1.96-0.1-0.713-0.263-1.343-0.49-1.89-0.227-0.547-0.503-1.06-0.83-1.54-0.327-0.48-0.753-0.85-1.28-1.11-0.533-0.26-1.14-0.39-1.82-0.39zM140.38-13.09v0c-0.273 2.447-0.917 4.61-1.93 6.49-1.007 1.88-2.3 3.41-3.88 4.59-1.58 1.18-3.373 2.07-5.38 2.67-2.013 0.6-4.207 0.9-6.58 0.9v0c-2.213 0-4.233-0.24-6.06-0.72-1.82-0.48-3.357-1.117-4.61-1.91-1.253-0.8-2.36-1.773-3.32-2.92-0.96-1.147-1.727-2.327-2.3-3.54-0.567-1.213-1.027-2.54-1.38-3.98-0.347-1.44-0.58-2.783-0.7-4.03-0.127-1.247-0.19-2.543-0.19-3.89v0-2.15c0.167-2.38 0.72-4.517 1.66-6.41 0.947-1.893 2.097-3.423 3.45-4.59 1.347-1.167 2.89-2.137 4.63-2.91 1.747-0.773 3.44-1.31 5.08-1.61 1.647-0.3 3.283-0.45 4.91-0.45v0c2.62 0 4.937 0.313 6.95 0.94 2.007 0.627 3.647 1.51 4.92 2.65 1.267 1.14 2.257 2.447 2.97 3.92 0.72 1.473 1.177 3.12 1.37 4.94v0 2.35c0 0.52-1.79 0.78-5.37 0.78v0c-0.847 0-2.023-0.017-3.53-0.05-1.507-0.033-2.493-0.05-2.96-0.05v0c-0.087 0-0.21 0.007-0.37 0.02-0.16 0.02-0.283 0.03-0.37 0.03v0c-0.42 0-0.74-0.177-0.96-0.53-0.22-0.347-0.367-0.773-0.44-1.28-0.073-0.5-0.163-1.003-0.27-1.51-0.107-0.507-0.327-0.933-0.66-1.28-0.333-0.353-0.793-0.53-1.38-0.53-0.587 0-1.1 0.097-1.54 0.29-0.44 0.2-0.79 0.507-1.05 0.92-0.26 0.413-0.473 0.833-0.64 1.26-0.173 0.42-0.297 0.97-0.37 1.65-0.073 0.673-0.123 1.24-0.15 1.7-0.02 0.467-0.04 1.087-0.06 1.86-0.013 0.773-0.03 1.34-0.05 1.7v0c0 0.193-0.013 0.55-0.04 1.07-0.033 0.52-0.05 0.943-0.05 1.27v0c0 4.053 1.073 6.137 3.22 6.25v0c0.587 0 1.067-0.21 1.44-0.63 0.373-0.427 0.63-0.9 0.77-1.42 0.14-0.52 0.3-1.07 0.48-1.65 0.173-0.58 0.367-0.973 0.58-1.18v0h13.28c0.54 0.047 0.833 0.37 0.88 0.97zM143.31-0.88v0-0.93c0-2.78 0.033-6.89 0.1-12.33 0.067-5.433 0.1-9.54 0.1-12.32v0-10.11h28.41v8.01c0 0.047 0 0.167 0 0.36 0 0.193 0 0.323 0 0.39 0 0.067-0.007 0.187-0.02 0.36-0.013 0.167-0.043 0.283-0.09 0.35-0.04 0.067-0.097 0.16-0.17 0.28-0.073 0.12-0.157 0.207-0.25 0.26-0.1 0.047-0.23 0.09-0.39 0.13-0.167 0.04-0.347 0.06-0.54 0.06v0h-0.68c-4.22 0-8.063-0.063-11.53-0.19v0c-0.033 0.26-0.087 0.663-0.16 1.21-0.073 0.54-0.13 1.02-0.17 1.44-0.04 0.413-0.06 0.813-0.06 1.2v0h11.62c0.493 0 0.82 0.067 0.98 0.2 0.16 0.133 0.24 0.343 0.24 0.63v0c0 0.087-0.007 0.22-0.02 0.4-0.02 0.173-0.03 0.303-0.03 0.39v0c0 0.78 0.027 1.933 0.08 3.46 0.047 1.533 0.07 2.69 0.07 3.47v0c-0.047 0.327-0.177 0.49-0.39 0.49v0c-0.1 0-0.18-0.033-0.24-0.1v0c-5.147 0.26-8.957 0.39-11.43 0.39v0h-0.63v3.52c1.447 0 3.54-0.067 6.28-0.2 2.747-0.127 4.803-0.19 6.17-0.19v0c1.073 0 1.69 0.227 1.85 0.68v0 1.86c0 0.78 0.017 1.933 0.05 3.46 0.033 1.533 0.05 2.69 0.05 3.47v0c0 0.813-0.327 1.22-0.98 1.22v0c-0.847 0-2.147-0.007-3.9-0.02-1.76-0.02-3.097-0.03-4.01-0.03v0c-2.34 0-5.69 0.06-10.05 0.18-4.367 0.127-7.527 0.197-9.48 0.21v0l-0.68-0.78c-0.067-0.453-0.1-0.747-0.1-0.88zM171.78 0v0c1.007-3.727 2.12-7.51 3.34-11.35 1.22-3.84 2.74-8.433 4.56-13.78 1.813-5.347 3.053-9.047 3.72-11.1v0c0.193-0.327 0.323-0.523 0.39-0.59v0h4.1c0.96 0 2.377-0.017 4.25-0.05 1.873-0.027 3.29-0.04 4.25-0.04v0h4.1c0.247 0 0.45 0.003 0.61 0.01 0.16 0.007 0.357 0.027 0.59 0.06 0.227 0.033 0.407 0.083 0.54 0.15 0.14 0.06 0.26 0.157 0.36 0.29 0.093 0.127 0.14 0.28 0.14 0.46v0l11.26 35.67c0 0.327-0.117 0.55-0.35 0.67-0.24 0.127-0.683 0.19-1.33 0.19v0h-2.25c-0.653 0-1.623 0.007-2.91 0.02-1.28 0.013-2.247 0.02-2.9 0.02v0c-0.193 0-0.59 0.013-1.19 0.04-0.593 0.027-1.093 0.037-1.5 0.03-0.407-0.013-0.857-0.04-1.35-0.08-0.5-0.04-0.9-0.13-1.2-0.27-0.3-0.133-0.49-0.317-0.57-0.55v0-1.61c-0.167-0.813-0.453-1.56-0.86-2.24-0.407-0.687-0.837-1.03-1.29-1.03v0h-8.4l-1.27 5.18c-0.18 0.387-1.09 0.58-2.73 0.58v0h-1.96c-0.7 0-1.74 0.027-3.12 0.08-1.387 0.047-2.43 0.07-3.13 0.07v0h-0.68c-0.26 0-0.67 0.007-1.23 0.02-0.56 0.02-0.997 0.03-1.31 0.03v0c-0.127-0.133-0.353-0.427-0.68-0.88zM190.67-23.29l-1.95 8.47 0.68 1.15h1.62c1.3 0 2.49-0.077 3.57-0.23 1.087-0.16 1.63-0.41 1.63-0.75v0l-3.15-14.06c-0.293 0-0.69 0.553-1.19 1.66-0.493 1.107-0.897 2.36-1.21 3.76zM215.97 0.68l-1.08-0.58v-11.04c-0.033-4.033 0.097-11.73 0.39-23.09v0-2.01c0-0.353 0.067-0.563 0.2-0.63v0h16.8c0.16 0 0.487 0.62 0.98 1.86 0.5 1.233 1.103 2.823 1.81 4.77 0.707 1.947 1.207 3.283 1.5 4.01v0l3.42 8.94v-9.47c0-0.813 0.02-2.307 0.06-4.48 0.04-2.173 0.053-3.87 0.04-5.09v0c0-0.46 1.3-0.69 3.9-0.69v0c0.82 0 1.937 0.017 3.35 0.05 1.413 0.033 2.283 0.05 2.61 0.05v0h1.86c0.26 0 0.39 0.05 0.39 0.15v0c0.093 4.52 0.14 10.997 0.14 19.43v0 16.94c-0.113 0.427-0.633 0.64-1.56 0.64v0h-0.63c-0.847 0-2.093 0.017-3.74 0.05-1.64 0.033-2.883 0.05-3.73 0.05v0h-7.18c-0.227-0.08-0.7-1.107-1.42-3.08v0c-0.76-2.133-1.9-5.217-3.42-9.25-1.513-4.04-2.357-6.293-2.53-6.76v0c0 0.96-0.01 2.39-0.03 4.29-0.013 1.907-0.02 3.34-0.02 4.3v0c0 0.713 0.017 1.787 0.05 3.22 0.027 1.433 0.04 2.507 0.04 3.22v0 3.08c0 0.747-0.323 1.12-0.97 1.12v0zM252.2-36.52v-0.1z" fill="#ffffff" fill-rule="nonzero" stroke="none" stroke-width="1" stroke-linecap="butt" stroke-linejoin="miter" stroke-miterlimit="10" stroke-dasharray="" stroke-dashoffset="0" font-family="none" font-weight="none" font-size="none" text-anchor="none" style="mix-blend-mode: normal" data-fill-palette-color="quaternary" opacity="1"></path><path d="M107.8 43.03l-3.03-19.67c-0.067 0.44-0.193 1.473-0.38 3.1-0.187 1.627-0.393 3.333-0.62 5.12-0.227 1.793-0.48 3.59-0.76 5.39-0.273 1.8-0.59 3.283-0.95 4.45-0.36 1.173-0.72 1.76-1.08 1.76v0c-0.7 0-1.733-0.017-3.1-0.05-1.367-0.033-2.4-0.05-3.1-0.05v0c-3.14 0-6.037 0.067-8.69 0.2v0c-0.227-0.113-0.427-0.293-0.6-0.54-0.167-0.24-0.303-0.533-0.41-0.88-0.107-0.34-0.19-0.643-0.25-0.91-0.053-0.273-0.11-0.617-0.17-1.03-0.053-0.413-0.097-0.693-0.13-0.84v0c-2.813-13.427-4.557-21.597-5.23-24.51v0l-1.7-8.21c0-0.453 0.227-0.76 0.68-0.92v0c0.393 0.033 1.01 0.05 1.85 0.05v0h1.96c0.387 0 0.947-0.017 1.68-0.05 0.733-0.033 1.263-0.05 1.59-0.05v0c0.307-0.02 0.763-0.017 1.37 0.01 0.6 0.027 0.99 0.04 1.17 0.04v0h1.41c0.167 0.033 0.413 0.05 0.74 0.05v0h0.73c0.293 0.08 0.587 0.64 0.88 1.68 0.293 1.04 0.57 2.473 0.83 4.3 0.26 1.82 0.47 3.41 0.63 4.77 0.167 1.36 0.35 3.003 0.55 4.93 0.207 1.933 0.31 2.913 0.31 2.94v0l3.1-18.58c0.78 0.067 1.397 0.1 1.85 0.1v0h1.52c1.313 0 3.22-0.007 5.72-0.02 2.5-0.02 4.37-0.03 5.61-0.03v0c0.34 0 0.55 0.13 0.63 0.39v0l3.05 20.19c0.313-3.707 0.697-7.1 1.15-10.18v0l1.46-9.91c0.12-0.387 0.69-0.58 1.71-0.58v0h1.18c0.193-0.02 0.497-0.017 0.91 0.01 0.413 0.02 0.71 0.03 0.89 0.03v0h2.15c0.6 0 1.28 0.01 2.04 0.03 0.753 0.013 1.147 0.02 1.18 0.02v0h2.88c0.147 0 0.247 0.11 0.3 0.33 0.047 0.22 0.087 0.583 0.12 1.09v0l-7.86 35.94c-0.327 0.033-0.717 0.05-1.17 0.05-0.46 0-0.877-0.007-1.25-0.02-0.373-0.007-0.803-0.013-1.29-0.02-0.493-0.007-0.893-0.01-1.2-0.01v0c-0.667 0-1.68-0.01-3.04-0.03-1.36-0.013-2.38-0.02-3.06-0.02v0c-0.087 0-1.673 0.047-4.76 0.14zM127.64 42.4v0c1.013-3.727 2.13-7.51 3.35-11.35 1.22-3.84 2.737-8.433 4.55-13.78 1.813-5.347 3.057-9.047 3.73-11.1v0c0.193-0.327 0.323-0.523 0.39-0.59v0h4.1c0.96 0 2.377-0.017 4.25-0.05 1.867-0.027 3.28-0.04 4.24-0.04v0h4.11c0.24 0 0.443 0.003 0.61 0.01 0.16 0.007 0.353 0.027 0.58 0.06 0.227 0.033 0.41 0.083 0.55 0.15 0.14 0.06 0.26 0.157 0.36 0.29 0.093 0.127 0.14 0.28 0.14 0.46v0l11.26 35.67c0 0.327-0.12 0.55-0.36 0.67-0.233 0.127-0.677 0.19-1.33 0.19v0h-2.24c-0.653 0-1.623 0.007-2.91 0.02-1.287 0.013-2.253 0.02-2.9 0.02v0c-0.2 0-0.597 0.013-1.19 0.04-0.593 0.027-1.093 0.037-1.5 0.03-0.407-0.013-0.86-0.04-1.36-0.08-0.493-0.04-0.89-0.13-1.19-0.27-0.3-0.133-0.493-0.317-0.58-0.55v0-1.61c-0.16-0.813-0.443-1.56-0.85-2.24-0.407-0.687-0.837-1.03-1.29-1.03v0h-8.4l-1.27 5.18c-0.18 0.387-1.093 0.58-2.74 0.58v0h-1.95c-0.7 0-1.74 0.027-3.12 0.08-1.387 0.047-2.43 0.07-3.13 0.07v0h-0.68c-0.26 0-0.673 0.007-1.24 0.02-0.56 0.02-0.993 0.03-1.3 0.03v0c-0.133-0.133-0.363-0.427-0.69-0.88zM146.54 19.11l-1.95 8.47 0.68 1.15h1.61c1.307 0 2.5-0.077 3.58-0.23 1.08-0.16 1.62-0.41 1.62-0.75v0l-3.15-14.06c-0.293 0-0.687 0.553-1.18 1.66-0.5 1.107-0.903 2.36-1.21 3.76zM175.11 43.28l-10.4-36.89c0-0.473 0.277-0.71 0.83-0.71v0c1.573 0 3.88-0.017 6.92-0.05 3.033-0.033 5.3-0.05 6.8-0.05v0c0.453 0 0.843 0.23 1.17 0.69v0l4.2 24.31c0.26-1.56 0.723-3.76 1.39-6.6 0.667-2.84 1.097-4.723 1.29-5.65v0l2.44-12.21c0.133-0.393 3.47-0.59 10.01-0.59v0h3.91c0.307 0.12 0.503 0.397 0.59 0.83v0l-5.47 19.78c-0.113 0.44-0.33 1.413-0.65 2.92-0.32 1.507-0.637 2.947-0.95 4.32-0.32 1.373-0.683 2.81-1.09 4.31-0.407 1.493-0.84 2.73-1.3 3.71-0.467 0.973-0.913 1.533-1.34 1.68v0c-0.58 0-1.45-0.023-2.61-0.07-1.153-0.047-2.023-0.07-2.61-0.07v0h-1.76c-1.107 0.093-2.313 0.157-3.62 0.19-1.313 0.033-2.71 0.06-4.19 0.08-1.48 0.013-2.667 0.037-3.56 0.07zM205.75 41.52v0-0.93c0-2.78 0.03-6.89 0.09-12.33 0.067-5.433 0.1-9.54 0.1-12.32v0-10.11h28.42v8.01c0 0.047 0 0.167 0 0.36 0 0.193 0 0.323 0 0.39 0 0.067-0.01 0.187-0.03 0.36-0.013 0.167-0.04 0.283-0.08 0.35-0.04 0.067-0.097 0.16-0.17 0.28-0.073 0.12-0.16 0.207-0.26 0.26-0.1 0.047-0.23 0.09-0.39 0.13-0.16 0.04-0.34 0.06-0.54 0.06v0h-0.68c-4.213 0-8.053-0.063-11.52-0.19v0c-0.033 0.26-0.087 0.663-0.16 1.21-0.073 0.54-0.13 1.02-0.17 1.44-0.04 0.413-0.06 0.813-0.06 1.2v0h11.62c0.487 0 0.81 0.067 0.97 0.2 0.167 0.133 0.25 0.343 0.25 0.63v0c0 0.087-0.01 0.22-0.03 0.4-0.013 0.173-0.02 0.303-0.02 0.39v0c0 0.78 0.023 1.933 0.07 3.46 0.053 1.533 0.08 2.69 0.08 3.47v0c-0.053 0.327-0.187 0.49-0.4 0.49v0c-0.093 0-0.173-0.033-0.24-0.1v0c-5.14 0.26-8.95 0.39-11.43 0.39v0h-0.63v3.52c1.447 0 3.543-0.067 6.29-0.2 2.74-0.127 4.793-0.19 6.16-0.19v0c1.073 0 1.693 0.227 1.86 0.68v0 1.86c0 0.78 0.017 1.933 0.05 3.46 0.027 1.533 0.04 2.69 0.04 3.47v0c0 0.813-0.323 1.22-0.97 1.22v0c-0.847 0-2.15-0.007-3.91-0.02-1.76-0.02-3.093-0.03-4-0.03v0c-2.347 0-5.7 0.06-10.06 0.18-4.36 0.127-7.517 0.197-9.47 0.21v0l-0.69-0.78c-0.06-0.453-0.09-0.747-0.09-0.88z" fill="#ffffff" fill-rule="nonzero" stroke="none" stroke-width="1" stroke-linecap="butt" stroke-linejoin="miter" stroke-miterlimit="10" stroke-dasharray="" stroke-dashoffset="0" font-family="none" font-weight="none" font-size="none" text-anchor="none" style="mix-blend-mode: normal" data-fill-palette-color="quaternary" opacity="1"></path></g></svg></g></svg></g></svg></g></svg></g></svg></g></svg></g></svg></g><defs></defs></svg><rect width="320" height="360" fill="none" stroke="none" visibility="hidden"></rect></g></svg></g></svg>